<svg width="339.267" height="172.32" viewBox="0 0 254.45 129.24" class="displayed_equation" xmlns="http://www.w3.org/2000/svg">
  <path d="M 250.390625 1085.915625 L 1557.265625 1085.915625" transform="matrix(.1 0 0 -.1 0 129.24)" fill="none" stroke-width="14.944" stroke-linecap="round" stroke-linejoin="round" stroke="#55a4e0" stroke-miterlimit="10" />
  <path d="M166.445313 21.066406L166.089844 21.066406C165.378906 22.414063 165.21875 22.71875 163.503906 22.707031L162.152344 22.707031 162.789063 19.570313 164.015625 19.570313C165.042969 19.570313 165.242188 19.691406 165.0625 20.617188L165.410156 20.617188 165.933594 18.03125 165.578125 18.03125C165.398438 18.933594 165.132813 19.144531 164.105469 19.144531L162.867188 19.144531 163.46875 16.246094 165.019531 16.246094C166.390625 16.246094 166.636719 16.523438 166.582031 17.640625L166.925781 17.640625 167.226563 15.808594 161.515625 15.808594 161.449219 16.144531C162.363281 16.144531 162.476563 16.324219 162.296875 17.171875L161.316406 21.890625C161.160156 22.671875 160.890625 22.804688 160.121094 22.804688L160.054688 23.140625 165.84375 23.140625 166.445313 21.066406M170.363281 24.382813C170.03125 24.777344 169.671875 24.933594 169.15625 24.933594 168.609375 24.933594 168.242188 24.667969 168.242188 23.902344L168.242188 23.765625C169.257813 23.679688 170.777344 23.265625 170.777344 22.128906 170.777344 21.542969 170.1875 21.410156 169.8125 21.410156 168.421875 21.410156 167.496094 22.789063 167.496094 24.105469 167.496094 24.832031 167.863281 25.550781 168.703125 25.550781 169.335938 25.550781 169.96875 25.339844 170.527344 24.535156zM168.273438 23.484375C168.40625 22.640625 168.992188 21.699219 169.640625 21.699219 169.898438 21.699219 170.007813 21.855469 170.007813 22.160156 170.007813 22.945313 169.242188 23.429688 168.273438 23.484375" fill="#55a4e0" />
  <path d="M185.570313 22.464844L185.214844 22.464844C184.78125 23.792969 184.578125 24.058594 182.851563 24.050781L181.410156 24.050781 181.410156 20.980469 182.714844 20.980469C183.742188 20.980469 183.964844 21.105469 183.964844 22.019531L184.320313 22.019531 184.320313 19.429688 183.964844 19.429688C183.964844 20.335938 183.742188 20.546875 182.714844 20.546875L181.410156 20.546875 181.410156 17.710938 183.050781 17.710938C184.421875 17.710938 184.703125 17.925781 184.867188 19.039063L185.226563 19.039063 185.160156 17.210938 179.300781 17.210938 179.300781 17.546875C180.203125 17.546875 180.382813 17.722656 180.382813 18.570313L180.382813 23.222656C180.382813 24.09375 180.203125 24.207031 179.300781 24.207031L179.300781 24.539063 185.257813 24.539063 185.570313 22.464844M191.277344 24.539063L191.277344 24.21875C190.863281 24.21875 190.695313 24.015625 190.382813 23.570313L189.011719 21.628906 190.195313 20.109375C190.453125 19.785156 190.707031 19.585938 191.089844 19.585938L191.089844 19.261719 189.246094 19.261719 189.246094 19.574219C189.601563 19.574219 189.703125 19.675781 189.703125 19.84375 189.703125 20.019531 189.601563 20.1875 189.304688 20.601563L188.777344 21.359375 188.734375 21.359375 188.464844 20.871094C188.085938 20.246094 187.886719 20.011719 187.886719 19.832031 187.886719 19.664063 188.0625 19.574219 188.421875 19.574219L188.421875 19.261719 186.023438 19.261719 186.023438 19.585938C186.480469 19.585938 186.613281 19.699219 187.003906 20.257813L188.164063 21.917969 186.828125 23.660156C186.457031 24.09375 186.257813 24.21875 185.878906 24.21875L185.878906 24.539063 187.742188 24.539063 187.742188 24.21875C187.371094 24.21875 187.238281 24.171875 187.238281 24.050781 187.238281 23.960938 187.394531 23.757813 187.507813 23.582031L188.421875 22.261719 188.464844 22.261719 188.6875 22.652344 189.390625 23.738281C189.449219 23.824219 189.46875 23.894531 189.46875 23.972656 189.46875 24.160156 189.335938 24.21875 188.945313 24.21875L188.945313 24.539063 191.277344 24.539063M195.753906 22.886719C195.25 23.535156 194.871094 23.816406 194.144531 23.816406 192.996094 23.816406 192.449219 22.855469 192.449219 21.496094 192.449219 20.210938 192.996094 19.542969 193.898438 19.542969 194.859375 19.542969 194.492188 20.8125 195.316406 20.8125 195.628906 20.8125 195.785156 20.636719 195.785156 20.3125 195.785156 19.664063 195.136719 19.128906 194.089844 19.128906 192.484375 19.128906 191.570313 20.265625 191.570313 22.019531 191.570313 23.570313 192.40625 24.652344 193.800781 24.652344 194.992188 24.652344 195.539063 23.949219 195.964844 23.046875L195.753906 22.886719M197.816406 16.808594C197.425781 16.808594 197.179688 17.097656 197.179688 17.433594 197.179688 17.777344 197.4375 18.070313 197.816406 18.070313 198.207031 18.070313 198.453125 17.777344 198.453125 17.433594 198.453125 17.097656 198.207031 16.808594 197.816406 16.808594zM199.066406 24.226563C198.320313 24.226563 198.265625 24.058594 198.265625 23.414063L198.265625 19.160156 197.972656 19.160156 196.570313 19.472656 196.570313 19.796875C196.570313 19.796875 196.691406 19.777344 196.847656 19.777344 197.171875 19.777344 197.339844 19.820313 197.339844 20.300781L197.339844 23.414063C197.339844 24.050781 197.304688 24.226563 196.554688 24.226563L196.554688 24.539063 199.066406 24.539063 199.066406 24.226563M202.667969 23.535156C202.390625 23.847656 202.246094 23.992188 201.886719 23.992188 201.453125 23.992188 201.351563 23.726563 201.351563 22.933594L201.351563 19.730469 202.613281 19.730469 202.613281 19.261719 201.351563 19.261719 201.363281 17.734375 201.074219 17.734375C200.671875 18.683594 200.339844 19.152344 199.8125 19.472656L199.8125 19.730469 200.425781 19.730469 200.425781 23.246094C200.425781 24.25 200.75 24.652344 201.496094 24.652344 202.210938 24.652344 202.445313 24.316406 202.882813 23.714844L202.667969 23.535156M207.429688 22.945313C207.074219 23.414063 206.726563 23.816406 205.824219 23.816406 204.929688 23.816406 204.082031 23.113281 204.082031 21.574219L207.609375 21.574219C207.554688 20.011719 206.75 19.128906 205.53125 19.128906 204.226563 19.128906 203.179688 20.019531 203.179688 21.886719 203.179688 23.679688 204.21875 24.652344 205.554688 24.652344 206.703125 24.652344 207.242188 23.949219 207.640625 23.101563zM204.070313 21.160156C204.160156 20.121094 204.609375 19.574219 205.367188 19.574219 206.15625 19.574219 206.527344 20.335938 206.558594 21.160156L204.070313 21.160156M213.734375 24.339844L213.734375 24.039063 213.5 24.039063C213.089844 24.039063 212.941406 23.925781 212.941406 23.347656L212.941406 16.664063 212.640625 16.664063 211.234375 17.054688 211.234375 17.367188C211.234375 17.367188 211.425781 17.34375 211.523438 17.34375 211.960938 17.34375 212.015625 17.445313 212.015625 17.933594L212.015625 19.394531C211.671875 19.207031 211.300781 19.128906 210.933594 19.128906 209.527344 19.128906 208.367188 20.257813 208.367188 22.097656 208.367188 23.523438 209.015625 24.628906 210.277344 24.628906 211.011719 24.628906 211.582031 24.207031 212.003906 23.824219L212.050781 23.824219 212.050781 24.597656 212.304688 24.597656zM212.015625 23.414063C211.628906 23.679688 211.324219 23.824219 210.800781 23.824219 209.851563 23.824219 209.339844 23.199219 209.339844 21.660156 209.339844 20.257813 209.976563 19.574219 210.914063 19.574219 211.601563 19.574219 211.925781 20.011719 212.015625 20.46875L212.015625 23.414063M217.132813 22.710938L217.167969 24.628906 217.402344 24.628906 217.636719 24.371094 217.660156 24.371094C217.949219 24.496094 218.285156 24.664063 218.929688 24.664063 219.9375 24.664063 220.804688 24.261719 220.804688 23.210938 220.804688 22.386719 220.257813 21.972656 219.242188 21.4375 218.304688 20.960938 217.9375 20.679688 217.9375 20.246094 217.9375 19.742188 218.328125 19.507813 218.84375 19.507813 219.523438 19.507813 219.9375 19.832031 220.179688 20.890625L220.480469 20.890625 220.449219 19.183594 220.226563 19.183594 220.035156 19.421875 220.023438 19.421875C219.746094 19.285156 219.410156 19.128906 218.851563 19.128906 217.894531 19.128906 217.148438 19.621094 217.148438 20.535156 217.148438 21.359375 217.601563 21.75 218.617188 22.261719 219.65625 22.777344 219.867188 22.988281 219.867188 23.511719 219.867188 24.039063 219.46875 24.25 218.910156 24.25 218.082031 24.25 217.660156 23.859375 217.425781 22.710938L217.132813 22.710938M224.367188 23.535156C224.089844 23.847656 223.945313 23.992188 223.589844 23.992188 223.152344 23.992188 223.054688 23.726563 223.054688 22.933594L223.054688 19.730469 224.3125 19.730469 224.3125 19.261719 223.054688 19.261719 223.0625 17.734375 222.773438 17.734375C222.371094 18.683594 222.039063 19.152344 221.511719 19.472656L221.511719 19.730469 222.128906 19.730469 222.128906 23.246094C222.128906 24.25 222.449219 24.652344 223.195313 24.652344 223.910156 24.652344 224.144531 24.316406 224.582031 23.714844L224.367188 23.535156M228.136719 23.847656C228.203125 24.339844 228.3125 24.597656 228.804688 24.597656 229.375 24.597656 229.640625 24.363281 230.011719 23.824219L229.84375 23.648438C229.6875 23.816406 229.53125 23.925781 229.320313 23.925781 229.085938 23.925781 228.984375 23.835938 228.984375 23.378906L228.984375 20.847656C228.984375 19.6875 228.527344 19.128906 227.3125 19.128906 226.09375 19.128906 225.347656 19.730469 225.347656 20.355469 225.347656 20.722656 225.59375 20.890625 225.816406 20.890625 226.128906 20.890625 226.304688 20.722656 226.304688 20.378906 226.304688 19.710938 226.417969 19.472656 227.054688 19.472656 227.722656 19.472656 228.058594 19.84375 228.058594 20.8125L228.058594 21.304688C227.097656 21.605469 225.121094 21.894531 225.121094 23.367188 225.121094 24.082031 225.59375 24.617188 226.453125 24.617188 227.164063 24.617188 227.566406 24.304688 228.09375 23.847656zM228.058594 23.511719C227.679688 23.824219 227.277344 24.003906 226.910156 24.003906 226.429688 24.003906 226.105469 23.660156 226.105469 23.101563 226.105469 22.230469 227.042969 21.929688 228.058594 21.671875L228.058594 23.511719M233.269531 23.535156C232.992188 23.847656 232.84375 23.992188 232.488281 23.992188 232.054688 23.992188 231.953125 23.726563 231.953125 22.933594L231.953125 19.730469 233.214844 19.730469 233.214844 19.261719 231.953125 19.261719 231.964844 17.734375 231.671875 17.734375C231.273438 18.683594 230.9375 19.152344 230.414063 19.472656L230.414063 19.730469 231.027344 19.730469 231.027344 23.246094C231.027344 24.25 231.351563 24.652344 232.097656 24.652344 232.8125 24.652344 233.046875 24.316406 233.480469 23.714844L233.269531 23.535156M238.128906 22.945313C237.773438 23.414063 237.425781 23.816406 236.523438 23.816406 235.632813 23.816406 234.78125 23.113281 234.78125 21.574219L238.308594 21.574219C238.253906 20.011719 237.449219 19.128906 236.234375 19.128906 234.929688 19.128906 233.878906 20.019531 233.878906 21.886719 233.878906 23.679688 234.917969 24.652344 236.257813 24.652344 237.40625 24.652344 237.941406 23.949219 238.34375 23.101563zM234.773438 21.160156C234.859375 20.121094 235.308594 19.574219 236.066406 19.574219 236.859375 19.574219 237.226563 20.335938 237.257813 21.160156L234.773438 21.160156" />
  <path d="M 250.390625 214.665625 L 1557.265625 214.665625" transform="matrix(.1 0 0 -.1 0 129.24)" fill="none" stroke-width="14.944" stroke-linecap="round" stroke-linejoin="round" stroke="#55a4e0" stroke-miterlimit="10" />
  <path d="M166.445313 107.363281L166.089844 107.363281C165.378906 108.714844 165.21875 109.015625 163.503906 109.003906L162.152344 109.003906 162.789063 105.871094 164.015625 105.871094C165.042969 105.871094 165.242188 105.992188 165.0625 106.917969L165.410156 106.917969 165.933594 104.332031 165.578125 104.332031C165.398438 105.234375 165.132813 105.445313 164.105469 105.445313L162.867188 105.445313 163.46875 102.542969 165.019531 102.542969C166.390625 102.542969 166.636719 102.824219 166.582031 103.941406L166.925781 103.941406 167.226563 102.109375 161.515625 102.109375 161.449219 102.445313C162.363281 102.445313 162.476563 102.621094 162.296875 103.472656L161.316406 108.191406C161.160156 108.972656 160.890625 109.105469 160.121094 109.105469L160.054688 109.441406 165.84375 109.441406 166.445313 107.363281M171.65625 107.953125L170.558594 107.953125C170.371094 107.820313 170.039063 107.710938 169.632813 107.710938 168.65625 107.710938 167.972656 108.292969 167.972656 109.121094 167.972656 109.792969 168.359375 110.074219 168.789063 110.25L168.789063 110.3125C168.453125 110.429688 168.074219 110.5625 168.074219 111 168.074219 111.226563 168.21875 111.359375 168.328125 111.441406L168.328125 111.488281C167.816406 111.636719 167.316406 111.949219 167.316406 112.472656 167.316406 113.121094 167.808594 113.46875 169.117188 113.46875 170.417969 113.46875 171.152344 112.878906 171.152344 112.160156 171.152344 110.953125 168.828125 111.210938 168.828125 110.773438 168.828125 110.5625 169.0625 110.375 169.445313 110.359375 170.558594 110.320313 171.066406 109.730469 171.066406 109.019531 171.066406 108.761719 170.988281 108.613281 170.886719 108.441406L170.886719 108.417969 171.609375 108.417969zM170.269531 108.894531C170.269531 109.550781 170.007813 110.058594 169.414063 110.058594 168.9375 110.058594 168.773438 109.683594 168.773438 109.050781 168.773438 108.410156 169.117188 108 169.617188 108 170.0625 108 170.269531 108.402344 170.269531 108.894531zM170.394531 112.480469C170.394531 112.847656 169.992188 113.136719 169.21875 113.136719 168.429688 113.136719 168.097656 112.808594 168.097656 112.386719 168.097656 111.957031 168.351563 111.792969 168.617188 111.628906 169.21875 111.746094 170.394531 111.847656 170.394531 112.480469" fill="#55a4e0" />
  <path d="M184.84375 108.183594L182.085938 108.183594 182.085938 108.539063C182.933594 108.539063 183.070313 108.695313 183.070313 109.496094L183.070313 110.703125C182.621094 111.035156 182.175781 111.261719 181.484375 111.261719 179.890625 111.261719 178.917969 110.144531 178.917969 107.871094 178.917969 105.894531 179.832031 104.65625 181.40625 104.65625 182.589844 104.65625 183.367188 105.246094 183.628906 106.730469L184.003906 106.730469 184.003906 104.175781 183.679688 104.175781C183.539063 104.421875 183.46875 104.578125 183.28125 104.578125 183.003906 104.578125 182.621094 104.175781 181.394531 104.175781 179.296875 104.175781 177.757813 105.527344 177.757813 108.003906 177.757813 110.390625 178.964844 111.761719 181.328125 111.761719 182.554688 111.761719 183.28125 111.472656 184.082031 111.003906L184.082031 109.386719C184.082031 108.695313 184.21875 108.539063 184.84375 108.539063L184.84375 108.183594M187.34375 106.261719L187.074219 106.261719 185.691406 106.597656 185.691406 106.910156C185.691406 106.910156 185.8125 106.886719 186.035156 106.886719 186.4375 106.886719 186.4375 107.089844 186.4375 107.488281L186.4375 110.558594C186.4375 111.183594 186.359375 111.316406 185.621094 111.316406L185.621094 111.640625 188.414063 111.640625 188.414063 111.316406C187.578125 111.316406 187.363281 111.207031 187.363281 110.503906L187.363281 107.957031C187.632813 107.511719 187.988281 107.042969 188.246094 107.042969 188.378906 107.042969 188.601563 107.421875 188.96875 107.421875 189.214844 107.421875 189.460938 107.246094 189.460938 106.820313 189.460938 106.441406 189.25 106.195313 188.8125 106.195313 188.277344 106.195313 187.945313 106.585938 187.375 107.410156L187.34375 107.410156 187.34375 106.261719M192.277344 106.230469C190.773438 106.230469 189.78125 107.324219 189.78125 108.941406 189.78125 110.746094 190.71875 111.75 192.277344 111.75 193.726563 111.75 194.753906 110.769531 194.753906 108.894531 194.753906 107.246094 193.804688 106.230469 192.277344 106.230469zM192.234375 106.652344C193.226563 106.652344 193.726563 107.578125 193.726563 108.949219 193.726563 110.769531 193.238281 111.304688 192.324219 111.304688 191.363281 111.316406 190.816406 110.570313 190.816406 108.792969 190.816406 107.367188 191.386719 106.652344 192.234375 106.652344M201.226563 111.136719L201.113281 111.136719C200.578125 111.136719 200.445313 111.058594 200.445313 110.402344L200.445313 106.308594 200.175781 106.308594 198.613281 106.472656 198.613281 106.785156C199.328125 106.785156 199.515625 106.84375 199.515625 107.433594L199.515625 110.367188C199.070313 110.757813 198.714844 111.035156 198.144531 111.035156 197.566406 111.035156 197.140625 110.703125 197.140625 109.566406L197.140625 106.308594 196.894531 106.308594 195.457031 106.472656 195.457031 106.785156C196.058594 106.796875 196.214844 106.84375 196.214844 107.445313L196.214844 109.710938C196.214844 111.226563 196.75 111.75 197.675781 111.75 198.390625 111.75 198.914063 111.417969 199.507813 110.835938L199.5625 110.835938 199.5625 111.695313 199.808594 111.695313 201.226563 111.4375 201.226563 111.136719M206.964844 108.214844C206.964844 106.933594 206.484375 106.230469 205.472656 106.230469 204.769531 106.230469 204.277344 106.628906 203.675781 107.167969L203.628906 107.167969 203.640625 106.261719 203.382813 106.261719 201.96875 106.585938 201.96875 106.910156C201.96875 106.910156 202.078125 106.886719 202.269531 106.886719 202.570313 106.886719 202.738281 106.976563 202.738281 107.378906L202.738281 110.511719C202.738281 111.136719 202.703125 111.328125 201.957031 111.328125L201.957031 111.640625 204.511719 111.640625 204.511719 111.328125C203.707031 111.328125 203.664063 111.136719 203.664063 110.511719L203.664063 107.644531C203.996094 107.34375 204.410156 106.941406 205.015625 106.941406 205.515625 106.941406 206.039063 107.15625 206.039063 108.496094L206.039063 110.511719C206.039063 111.136719 206.007813 111.328125 205.214844 111.328125L205.214844 111.640625 207.792969 111.640625 207.792969 111.328125C207.042969 111.328125 206.964844 111.136719 206.964844 110.511719L206.964844 108.214844M213.734375 111.4375L213.734375 111.136719 213.5 111.136719C213.089844 111.136719 212.941406 111.027344 212.941406 110.445313L212.941406 103.761719 212.640625 103.761719 211.234375 104.152344 211.234375 104.464844C211.234375 104.464844 211.425781 104.445313 211.523438 104.445313 211.960938 104.445313 212.015625 104.542969 212.015625 105.035156L212.015625 106.496094C211.671875 106.308594 211.300781 106.230469 210.933594 106.230469 209.527344 106.230469 208.367188 107.355469 208.367188 109.195313 208.367188 110.625 209.015625 111.730469 210.277344 111.730469 211.011719 111.730469 211.582031 111.304688 212.003906 110.925781L212.050781 110.925781 212.050781 111.695313 212.304688 111.695313zM212.015625 110.511719C211.628906 110.78125 211.324219 110.925781 210.800781 110.925781 209.851563 110.925781 209.339844 110.300781 209.339844 108.761719 209.339844 107.355469 209.976563 106.675781 210.914063 106.675781 211.601563 106.675781 211.925781 107.109375 212.015625 107.566406L212.015625 110.511719M217.132813 109.808594L217.167969 111.730469 217.402344 111.730469 217.636719 111.472656 217.660156 111.472656C217.949219 111.59375 218.285156 111.761719 218.929688 111.761719 219.9375 111.761719 220.804688 111.359375 220.804688 110.3125 220.804688 109.488281 220.257813 109.074219 219.242188 108.539063 218.304688 108.058594 217.9375 107.78125 217.9375 107.34375 217.9375 106.84375 218.328125 106.609375 218.84375 106.609375 219.523438 106.609375 219.9375 106.933594 220.179688 107.992188L220.480469 107.992188 220.449219 106.285156 220.226563 106.285156 220.035156 106.519531 220.023438 106.519531C219.746094 106.386719 219.410156 106.230469 218.851563 106.230469 217.894531 106.230469 217.148438 106.71875 217.148438 107.636719 217.148438 108.460938 217.601563 108.851563 218.617188 109.363281 219.65625 109.878906 219.867188 110.089844 219.867188 110.613281 219.867188 111.136719 219.46875 111.347656 218.910156 111.347656 218.082031 111.347656 217.660156 110.957031 217.425781 109.808594L217.132813 109.808594M224.367188 110.636719C224.089844 110.949219 223.945313 111.09375 223.589844 111.09375 223.152344 111.09375 223.054688 110.824219 223.054688 110.035156L223.054688 106.832031 224.3125 106.832031 224.3125 106.363281 223.054688 106.363281 223.0625 104.835938 222.773438 104.835938C222.371094 105.78125 222.039063 106.25 221.511719 106.574219L221.511719 106.832031 222.128906 106.832031 222.128906 110.347656C222.128906 111.347656 222.449219 111.75 223.195313 111.75 223.910156 111.75 224.144531 111.417969 224.582031 110.816406L224.367188 110.636719M228.136719 110.949219C228.203125 111.4375 228.3125 111.695313 228.804688 111.695313 229.375 111.695313 229.640625 111.460938 230.011719 110.925781L229.84375 110.746094C229.6875 110.914063 229.53125 111.027344 229.320313 111.027344 229.085938 111.027344 228.984375 110.9375 228.984375 110.480469L228.984375 107.949219C228.984375 106.785156 228.527344 106.230469 227.3125 106.230469 226.09375 106.230469 225.347656 106.832031 225.347656 107.457031 225.347656 107.824219 225.59375 107.992188 225.816406 107.992188 226.128906 107.992188 226.304688 107.824219 226.304688 107.480469 226.304688 106.808594 226.417969 106.574219 227.054688 106.574219 227.722656 106.574219 228.058594 106.941406 228.058594 107.914063L228.058594 108.402344C227.097656 108.707031 225.121094 108.996094 225.121094 110.46875 225.121094 111.183594 225.59375 111.71875 226.453125 111.71875 227.164063 111.71875 227.566406 111.40625 228.09375 110.949219zM228.058594 110.613281C227.679688 110.925781 227.277344 111.105469 226.910156 111.105469 226.429688 111.105469 226.105469 110.757813 226.105469 110.199219 226.105469 109.332031 227.042969 109.027344 228.058594 108.773438L228.058594 110.613281M233.269531 110.636719C232.992188 110.949219 232.84375 111.09375 232.488281 111.09375 232.054688 111.09375 231.953125 110.824219 231.953125 110.035156L231.953125 106.832031 233.214844 106.832031 233.214844 106.363281 231.953125 106.363281 231.964844 104.835938 231.671875 104.835938C231.273438 105.78125 230.9375 106.25 230.414063 106.574219L230.414063 106.832031 231.027344 106.832031 231.027344 110.347656C231.027344 111.347656 231.351563 111.75 232.097656 111.75 232.8125 111.75 233.046875 111.417969 233.480469 110.816406L233.269531 110.636719M238.128906 110.042969C237.773438 110.511719 237.425781 110.914063 236.523438 110.914063 235.632813 110.914063 234.78125 110.210938 234.78125 108.671875L238.308594 108.671875C238.253906 107.109375 237.449219 106.230469 236.234375 106.230469 234.929688 106.230469 233.878906 107.121094 233.878906 108.984375 233.878906 110.78125 234.917969 111.75 236.257813 111.75 237.40625 111.75 237.941406 111.050781 238.34375 110.199219zM234.773438 108.261719C234.859375 107.222656 235.308594 106.675781 236.066406 106.675781 236.859375 106.675781 237.226563 107.433594 237.257813 108.261719L234.773438 108.261719" />
  <path d="M 816.71875 214.665625 L 816.71875 1035.915625" transform="matrix(.1 0 0 -.1 0 129.24)" fill="none" stroke-width="7.97" stroke-linecap="round" stroke-linejoin="round" stroke="#f3a203" stroke-miterlimit="10" />
  <path d="M 81.671875 21.785156 L 79.605469 27.253906 L 81.671875 25.449219 L 83.734375 27.253906" fill="#f3a203" />
  <path d="M 816.71875 1074.548437 L 796.054688 1019.860937 L 816.71875 1037.907812 L 837.34375 1019.860937 Z M 816.71875 1074.548437" transform="matrix(.1 0 0 -.1 0 129.24)" fill="none" stroke-width="7.97" stroke-linecap="round" stroke="#f3a203" stroke-miterlimit="10" />
  <path d="M 859.21875 214.665625 C 859.21875 238.142187 840.195313 257.165625 816.71875 257.165625 C 793.242188 257.165625 774.179688 238.142187 774.179688 214.665625 C 774.179688 191.189062 793.242188 172.126562 816.71875 172.126562 C 840.195313 172.126562 859.21875 191.189062 859.21875 214.665625 Z M 859.21875 214.665625" transform="matrix(.1 0 0 -.1 0 129.24)" fill="#fbc04f" stroke-width="7.97" stroke-linecap="round" stroke-linejoin="round" stroke="#000" stroke-miterlimit="10" />
  <path d="M 250.390625 541.384375 L 270.3125 541.384375 C 282.773438 541.384375 288.984375 571.267187 301.445313 571.267187 C 310.546875 571.267187 318.4375 556.30625 326.367188 541.384375 C 334.296875 526.423437 342.1875 511.501562 351.25 511.501562 C 360.351563 511.501562 368.242188 526.423437 376.171875 541.384375 C 384.101563 556.30625 391.992188 571.267187 401.09375 571.267187 C 410.15625 571.267187 418.046875 556.30625 425.976563 541.384375 C 433.90625 526.423437 441.796875 511.501562 450.898438 511.501562 C 459.960938 511.501562 467.851563 526.423437 475.78125 541.384375 C 483.710938 556.30625 491.601563 571.267187 500.703125 571.267187 C 509.804688 571.267187 517.695313 556.30625 525.625 541.384375 C 533.554688 526.423437 541.445313 511.501562 550.507813 511.501562 C 562.96875 511.501562 569.179688 541.384375 581.640625 541.384375 L 636.015625 541.384375" transform="matrix(.1 0 0 -.1 0 129.24)" fill="none" stroke-width="7.97" stroke-linecap="round" stroke-linejoin="round" stroke="#e14b3b" stroke-miterlimit="10" />
  <path d="M 67.46875 75.101563 L 61.996094 73.039063 L 63.800781 75.101563 L 61.996094 77.167969" fill="#e14b3b" />
  <path d="M 674.6875 541.384375 L 619.960938 562.009375 L 638.007813 541.384375 L 619.960938 520.720312 Z M 674.6875 541.384375" transform="matrix(.1 0 0 -.1 0 129.24)" fill="none" stroke-width="7.97" stroke-linecap="round" stroke="#e14b3b" stroke-miterlimit="10" />
  <path d="M21.945313 59.164063L21.589844 59.164063C20.875 60.515625 20.71875 60.816406 19 60.804688L17.652344 60.804688 18.289063 57.667969 19.515625 57.667969C20.542969 57.667969 20.742188 57.792969 20.5625 58.71875L20.910156 58.71875 21.433594 56.128906 21.078125 56.128906C20.898438 57.035156 20.632813 57.246094 19.605469 57.246094L18.367188 57.246094 18.96875 54.34375 20.519531 54.34375C21.890625 54.34375 22.136719 54.625 22.082031 55.738281L22.425781 55.738281 22.726563 53.910156 17.015625 53.910156 16.949219 54.246094C17.863281 54.246094 17.976563 54.421875 17.796875 55.269531L16.816406 59.988281C16.660156 60.769531 16.390625 60.90625 15.621094 60.90625L15.554688 61.238281 21.34375 61.238281 21.945313 59.164063M24.070313 59.785156L23.875 59.785156 22.894531 60 22.894531 60.226563C22.894531 60.226563 23.042969 60.210938 23.144531 60.210938 23.402344 60.210938 23.441406 60.3125 23.441406 60.609375L23.441406 64.46875C23.441406 64.902344 23.363281 65.035156 22.871094 65.035156L22.871094 65.253906 24.84375 65.253906 24.84375 65.027344C24.234375 65.027344 24.085938 64.925781 24.085938 64.421875L24.085938 63.398438 24.117188 63.398438C24.34375 63.554688 24.609375 63.617188 24.90625 63.617188 25.839844 63.617188 26.613281 62.832031 26.613281 61.503906 26.613281 60.484375 26.074219 59.761719 25.304688 59.761719 24.84375 59.761719 24.46875 60 24.09375 60.4375L24.070313 60.4375zM24.085938 60.765625C24.234375 60.570313 24.570313 60.289063 24.984375 60.289063 25.5625 60.289063 25.902344 60.742188 25.902344 61.722656 25.902344 62.808594 25.492188 63.3125 24.945313 63.3125 24.507813 63.3125 24.234375 62.964844 24.085938 62.800781L24.085938 60.765625M37.839844 57.589844L37.839844 56.832031 31.191406 56.832031 31.191406 57.589844zM37.839844 59.867188L37.839844 59.121094 31.191406 59.121094 31.191406 59.867188 37.839844 59.867188M47.847656 59.164063L47.492188 59.164063C46.777344 60.515625 46.621094 60.816406 44.902344 60.804688L43.554688 60.804688 44.1875 57.667969 45.414063 57.667969C46.441406 57.667969 46.640625 57.792969 46.464844 58.71875L46.808594 58.71875 47.335938 56.128906 46.976563 56.128906C46.796875 57.035156 46.53125 57.246094 45.503906 57.246094L44.265625 57.246094 44.867188 54.34375 46.417969 54.34375C47.792969 54.34375 48.039063 54.625 47.980469 55.738281L48.328125 55.738281 48.628906 53.910156 42.917969 53.910156 42.851563 54.246094C43.765625 54.246094 43.875 54.421875 43.695313 55.269531L42.714844 59.988281C42.558594 60.769531 42.292969 60.90625 41.523438 60.90625L41.453125 61.238281 47.246094 61.238281 47.847656 59.164063M51.765625 62.480469C51.429688 62.878906 51.070313 63.035156 50.554688 63.035156 50.011719 63.035156 49.644531 62.769531 49.644531 62.003906L49.644531 61.863281C50.65625 61.777344 52.179688 61.363281 52.179688 60.226563 52.179688 59.644531 51.585938 59.511719 51.210938 59.511719 49.824219 59.511719 48.898438 60.890625 48.898438 62.207031 48.898438 62.933594 49.261719 63.648438 50.105469 63.648438 50.734375 63.648438 51.367188 63.4375 51.929688 62.636719zM49.675781 61.582031C49.808594 60.742188 50.390625 59.800781 51.039063 59.800781 51.296875 59.800781 51.40625 59.953125 51.40625 60.257813 51.40625 61.046875 50.640625 61.527344 49.675781 61.582031M56.09375 58.730469L62.742188 58.730469 62.742188 57.972656 56.09375 57.972656zM72.246094 59.164063L71.890625 59.164063C71.175781 60.515625 71.019531 60.816406 69.300781 60.804688L67.953125 60.804688 68.585938 57.667969 69.816406 57.667969C70.84375 57.667969 71.042969 57.792969 70.863281 58.71875L71.210938 58.71875 71.734375 56.128906 71.378906 56.128906C71.199219 57.035156 70.929688 57.246094 69.90625 57.246094L68.664063 57.246094 69.269531 54.34375 70.820313 54.34375C72.191406 54.34375 72.4375 54.625 72.382813 55.738281L72.726563 55.738281 73.027344 53.910156 67.316406 53.910156 67.25 54.246094C68.164063 54.246094 68.277344 54.421875 68.097656 55.269531L67.117188 59.988281C66.960938 60.769531 66.691406 60.90625 65.921875 60.90625L65.855469 61.238281 71.644531 61.238281 72.246094 59.164063M77.359375 59.753906L76.257813 59.753906C76.070313 59.621094 75.738281 59.511719 75.332031 59.511719 74.359375 59.511719 73.671875 60.09375 73.671875 60.921875 73.671875 61.589844 74.0625 61.871094 74.492188 62.050781L74.492188 62.113281C74.15625 62.230469 73.773438 62.363281 73.773438 62.800781 73.773438 63.027344 73.921875 63.160156 74.03125 63.242188L74.03125 63.289063C73.515625 63.4375 73.015625 63.75 73.015625 64.273438 73.015625 64.917969 73.507813 65.269531 74.816406 65.269531 76.117188 65.269531 76.851563 64.675781 76.851563 63.960938 76.851563 62.753906 74.53125 63.011719 74.53125 62.574219 74.53125 62.363281 74.761719 62.175781 75.144531 62.160156 76.257813 62.121094 76.765625 61.527344 76.765625 60.820313 76.765625 60.5625 76.6875 60.414063 76.585938 60.242188L76.585938 60.21875 77.3125 60.21875zM75.96875 60.695313C75.96875 61.347656 75.707031 61.855469 75.113281 61.855469 74.636719 61.855469 74.476563 61.480469 74.476563 60.851563 74.476563 60.210938 74.816406 59.800781 75.316406 59.800781 75.761719 59.800781 75.96875 60.203125 75.96875 60.695313zM76.09375 64.28125C76.09375 64.644531 75.691406 64.933594 74.917969 64.933594 74.132813 64.933594 73.796875 64.605469 73.796875 64.1875 73.796875 63.757813 74.054688 63.59375 74.320313 63.429688 74.917969 63.546875 76.09375 63.648438 76.09375 64.28125" fill="#e14b3b" />
</svg>