<svg width="363.533" height="155.48" viewBox="0 0 272.65 116.61" class="displayed_equation" xmlns="http://www.w3.org/2000/svg">
  <path d="M 127.460938 959.576562 L 1617.265625 959.576562" transform="matrix(.1 0 0 -.1 0 116.61)" fill="none" stroke-width="14.944" stroke-linecap="round" stroke-linejoin="round" stroke="#55a4e0" stroke-miterlimit="10" />
  <path d="M172.445313 21.035156L172.089844 21.035156C171.378906 22.386719 171.21875 22.6875 169.503906 22.675781L168.152344 22.675781 168.789063 19.539063 170.015625 19.539063C171.042969 19.539063 171.242188 19.664063 171.0625 20.589844L171.410156 20.589844 171.933594 18 171.578125 18C171.398438 18.902344 171.132813 19.117188 170.105469 19.117188L168.867188 19.117188 169.46875 16.214844 171.019531 16.214844C172.390625 16.214844 172.636719 16.492188 172.582031 17.609375L172.925781 17.609375 173.226563 15.78125 167.515625 15.78125 167.449219 16.113281C168.363281 16.113281 168.476563 16.292969 168.296875 17.140625L167.316406 21.859375C167.160156 22.640625 166.890625 22.777344 166.121094 22.777344L166.054688 23.109375 171.84375 23.109375 172.445313 21.035156M176.363281 24.351563C176.03125 24.746094 175.671875 24.902344 175.15625 24.902344 174.609375 24.902344 174.242188 24.636719 174.242188 23.875L174.242188 23.734375C175.257813 23.648438 176.777344 23.234375 176.777344 22.097656 176.777344 21.511719 176.1875 21.378906 175.8125 21.378906 174.421875 21.378906 173.496094 22.761719 173.496094 24.078125 173.496094 24.800781 173.863281 25.519531 174.703125 25.519531 175.335938 25.519531 175.96875 25.308594 176.527344 24.503906zM174.273438 23.453125C174.40625 22.613281 174.992188 21.667969 175.640625 21.667969 175.898438 21.667969 176.007813 21.824219 176.007813 22.128906 176.007813 22.917969 175.242188 23.398438 174.273438 23.453125" fill="#55a4e0" />
  <path d="M203.773438 22.433594L203.414063 22.433594C202.980469 23.761719 202.777344 24.03125 201.050781 24.019531L199.609375 24.019531 199.609375 20.949219 200.914063 20.949219C201.941406 20.949219 202.164063 21.074219 202.164063 21.988281L202.523438 21.988281 202.523438 19.402344 202.164063 19.402344C202.164063 20.304688 201.941406 20.515625 200.914063 20.515625L199.609375 20.515625 199.609375 17.683594 201.25 17.683594C202.621094 17.683594 202.902344 17.894531 203.070313 19.011719L203.425781 19.011719 203.359375 17.179688 197.503906 17.179688 197.503906 17.515625C198.40625 17.515625 198.585938 17.691406 198.585938 18.542969L198.585938 23.191406C198.585938 24.0625 198.40625 24.175781 197.503906 24.175781L197.503906 24.511719 203.460938 24.511719 203.773438 22.433594M209.476563 24.511719L209.476563 24.1875C209.0625 24.1875 208.898438 23.984375 208.585938 23.539063L207.214844 21.597656 208.394531 20.082031C208.652344 19.757813 208.90625 19.558594 209.289063 19.558594L209.289063 19.234375 207.445313 19.234375 207.445313 19.546875C207.804688 19.546875 207.90625 19.644531 207.90625 19.8125 207.90625 19.992188 207.804688 20.160156 207.503906 20.574219L206.976563 21.332031 206.933594 21.332031 206.664063 20.839844C206.285156 20.214844 206.085938 19.980469 206.085938 19.800781 206.085938 19.636719 206.265625 19.546875 206.621094 19.546875L206.621094 19.234375 204.222656 19.234375 204.222656 19.558594C204.679688 19.558594 204.8125 19.667969 205.203125 20.226563L206.363281 21.886719 205.027344 23.628906C204.65625 24.0625 204.457031 24.1875 204.078125 24.1875L204.078125 24.511719 205.941406 24.511719 205.941406 24.1875C205.570313 24.1875 205.4375 24.140625 205.4375 24.019531 205.4375 23.929688 205.59375 23.730469 205.707031 23.550781L206.621094 22.234375 206.664063 22.234375 206.890625 22.625 207.59375 23.707031C207.648438 23.796875 207.671875 23.863281 207.671875 23.941406 207.671875 24.128906 207.535156 24.1875 207.144531 24.1875L207.144531 24.511719 209.476563 24.511719M213.953125 22.859375C213.449219 23.503906 213.070313 23.785156 212.34375 23.785156 211.195313 23.785156 210.648438 22.824219 210.648438 21.464844 210.648438 20.183594 211.195313 19.511719 212.101563 19.511719 213.058594 19.511719 212.691406 20.785156 213.515625 20.785156 213.828125 20.785156 213.984375 20.605469 213.984375 20.28125 213.984375 19.636719 213.339844 19.097656 212.289063 19.097656 210.683594 19.097656 209.769531 20.238281 209.769531 21.988281 209.769531 23.539063 210.605469 24.621094 212 24.621094 213.195313 24.621094 213.738281 23.917969 214.164063 23.015625L213.953125 22.859375M216.015625 16.777344C215.628906 16.777344 215.382813 17.070313 215.382813 17.402344 215.382813 17.75 215.640625 18.039063 216.015625 18.039063 216.40625 18.039063 216.652344 17.75 216.652344 17.402344 216.652344 17.070313 216.40625 16.777344 216.015625 16.777344zM217.265625 24.199219C216.519531 24.199219 216.464844 24.03125 216.464844 23.382813L216.464844 19.132813 216.171875 19.132813 214.769531 19.445313 214.769531 19.769531C214.769531 19.769531 214.890625 19.746094 215.046875 19.746094 215.371094 19.746094 215.539063 19.792969 215.539063 20.269531L215.539063 23.382813C215.539063 24.019531 215.503906 24.199219 214.757813 24.199219L214.757813 24.511719 217.265625 24.511719 217.265625 24.199219M220.769531 23.503906C220.492188 23.816406 220.34375 23.964844 219.988281 23.964844 219.554688 23.964844 219.453125 23.695313 219.453125 22.902344L219.453125 19.703125 220.714844 19.703125 220.714844 19.234375 219.453125 19.234375 219.464844 17.707031 219.171875 17.707031C218.773438 18.652344 218.4375 19.121094 217.914063 19.445313L217.914063 19.703125 218.527344 19.703125 218.527344 23.214844C218.527344 24.21875 218.851563 24.621094 219.597656 24.621094 220.3125 24.621094 220.546875 24.285156 220.980469 23.683594L220.769531 23.503906M225.628906 22.914063C225.273438 23.382813 224.925781 23.785156 224.023438 23.785156 223.132813 23.785156 222.28125 23.082031 222.28125 21.542969L225.808594 21.542969C225.753906 19.980469 224.949219 19.097656 223.734375 19.097656 222.429688 19.097656 221.378906 19.992188 221.378906 21.855469 221.378906 23.652344 222.417969 24.621094 223.757813 24.621094 224.90625 24.621094 225.441406 23.917969 225.84375 23.070313zM222.273438 21.128906C222.359375 20.09375 222.808594 19.546875 223.566406 19.546875 224.359375 19.546875 224.726563 20.304688 224.757813 21.128906L222.273438 21.128906M231.933594 24.308594L231.933594 24.007813 231.699219 24.007813C231.289063 24.007813 231.140625 23.894531 231.140625 23.316406L231.140625 16.632813 230.839844 16.632813 229.4375 17.023438 229.4375 17.335938C229.4375 17.335938 229.625 17.316406 229.726563 17.316406 230.160156 17.316406 230.214844 17.414063 230.214844 17.90625L230.214844 19.367188C229.871094 19.175781 229.503906 19.097656 229.132813 19.097656 227.726563 19.097656 226.570313 20.226563 226.570313 22.066406 226.570313 23.496094 227.214844 24.597656 228.476563 24.597656 229.214844 24.597656 229.78125 24.175781 230.203125 23.796875L230.25 23.796875 230.25 24.566406 230.507813 24.566406zM230.214844 23.382813C229.828125 23.652344 229.523438 23.796875 229 23.796875 228.050781 23.796875 227.539063 23.171875 227.539063 21.632813 227.539063 20.226563 228.175781 19.546875 229.113281 19.546875 229.804688 19.546875 230.128906 19.980469 230.214844 20.4375L230.214844 23.382813M235.335938 22.679688L235.367188 24.597656 235.601563 24.597656 235.839844 24.34375 235.859375 24.34375C236.148438 24.464844 236.484375 24.632813 237.132813 24.632813 238.136719 24.632813 239.007813 24.230469 239.007813 23.183594 239.007813 22.355469 238.460938 21.945313 237.445313 21.410156 236.507813 20.929688 236.140625 20.652344 236.140625 20.214844 236.140625 19.714844 236.527344 19.480469 237.042969 19.480469 237.722656 19.480469 238.136719 19.800781 238.382813 20.863281L238.679688 20.863281 238.648438 19.15625 238.425781 19.15625 238.234375 19.390625 238.226563 19.390625C237.945313 19.253906 237.609375 19.097656 237.054688 19.097656 236.09375 19.097656 235.347656 19.589844 235.347656 20.503906 235.347656 21.332031 235.804688 21.722656 236.820313 22.234375 237.855469 22.746094 238.070313 22.960938 238.070313 23.484375 238.070313 24.007813 237.667969 24.21875 237.109375 24.21875 236.28125 24.21875 235.859375 23.828125 235.625 22.679688L235.335938 22.679688M242.570313 23.503906C242.289063 23.816406 242.144531 23.964844 241.789063 23.964844 241.351563 23.964844 241.253906 23.695313 241.253906 22.902344L241.253906 19.703125 242.511719 19.703125 242.511719 19.234375 241.253906 19.234375 241.265625 17.707031 240.972656 17.707031C240.570313 18.652344 240.238281 19.121094 239.714844 19.445313L239.714844 19.703125 240.328125 19.703125 240.328125 23.214844C240.328125 24.21875 240.648438 24.621094 241.398438 24.621094 242.109375 24.621094 242.34375 24.285156 242.78125 23.683594L242.570313 23.503906M246.335938 23.816406C246.402344 24.308594 246.515625 24.566406 247.007813 24.566406 247.574219 24.566406 247.84375 24.332031 248.210938 23.796875L248.042969 23.617188C247.886719 23.785156 247.730469 23.894531 247.519531 23.894531 247.285156 23.894531 247.183594 23.808594 247.183594 23.347656L247.183594 20.816406C247.183594 19.65625 246.726563 19.097656 245.511719 19.097656 244.296875 19.097656 243.546875 19.703125 243.546875 20.324219 243.546875 20.695313 243.792969 20.863281 244.015625 20.863281 244.328125 20.863281 244.507813 20.695313 244.507813 20.347656 244.507813 19.679688 244.617188 19.445313 245.253906 19.445313 245.921875 19.445313 246.257813 19.8125 246.257813 20.785156L246.257813 21.273438C245.296875 21.574219 243.324219 21.867188 243.324219 23.339844 243.324219 24.050781 243.792969 24.589844 244.652344 24.589844 245.367188 24.589844 245.765625 24.277344 246.292969 23.816406zM246.257813 23.484375C245.878906 23.796875 245.476563 23.972656 245.109375 23.972656 244.628906 23.972656 244.304688 23.628906 244.304688 23.070313 244.304688 22.199219 245.242188 21.898438 246.257813 21.644531L246.257813 23.484375M251.46875 23.503906C251.191406 23.816406 251.046875 23.964844 250.6875 23.964844 250.253906 23.964844 250.152344 23.695313 250.152344 22.902344L250.152344 19.703125 251.414063 19.703125 251.414063 19.234375 250.152344 19.234375 250.164063 17.707031 249.871094 17.707031C249.472656 18.652344 249.136719 19.121094 248.613281 19.445313L248.613281 19.703125 249.226563 19.703125 249.226563 23.214844C249.226563 24.21875 249.550781 24.621094 250.296875 24.621094 251.011719 24.621094 251.246094 24.285156 251.679688 23.683594L251.46875 23.503906M256.328125 22.914063C255.972656 23.382813 255.628906 23.785156 254.722656 23.785156 253.832031 23.785156 252.984375 23.082031 252.984375 21.542969L256.507813 21.542969C256.453125 19.980469 255.648438 19.097656 254.433594 19.097656 253.128906 19.097656 252.078125 19.992188 252.078125 21.855469 252.078125 23.652344 253.117188 24.621094 254.457031 24.621094 255.605469 24.621094 256.140625 23.917969 256.542969 23.070313zM252.972656 21.128906C253.0625 20.09375 253.507813 19.546875 254.265625 19.546875 255.058594 19.546875 255.425781 20.304688 255.460938 21.128906L252.972656 21.128906" />
  <path d="M 127.460938 214.654687 L 1617.265625 214.654687" transform="matrix(.1 0 0 -.1 0 116.61)" fill="none" stroke-width="14.944" stroke-linecap="round" stroke-linejoin="round" stroke="#55a4e0" stroke-miterlimit="10" />
  <path d="M172.445313 94.734375L172.089844 94.734375C171.378906 96.085938 171.21875 96.386719 169.503906 96.375L168.152344 96.375 168.789063 93.238281 170.015625 93.238281C171.042969 93.238281 171.242188 93.363281 171.0625 94.289063L171.410156 94.289063 171.933594 91.699219 171.578125 91.699219C171.398438 92.605469 171.132813 92.816406 170.105469 92.816406L168.867188 92.816406 169.46875 89.914063 171.019531 89.914063C172.390625 89.914063 172.636719 90.195313 172.582031 91.308594L172.925781 91.308594 173.226563 89.480469 167.515625 89.480469 167.449219 89.816406C168.363281 89.816406 168.476563 89.992188 168.296875 90.839844L167.316406 95.558594C167.160156 96.339844 166.890625 96.476563 166.121094 96.476563L166.054688 96.808594 171.84375 96.808594 172.445313 94.734375M177.65625 95.324219L176.558594 95.324219C176.371094 95.191406 176.039063 95.082031 175.632813 95.082031 174.65625 95.082031 173.972656 95.664063 173.972656 96.492188 173.972656 97.160156 174.359375 97.441406 174.789063 97.621094L174.789063 97.683594C174.453125 97.800781 174.074219 97.933594 174.074219 98.371094 174.074219 98.597656 174.21875 98.730469 174.328125 98.8125L174.328125 98.859375C173.816406 99.007813 173.316406 99.320313 173.316406 99.84375 173.316406 100.488281 173.808594 100.839844 175.117188 100.839844 176.417969 100.839844 177.152344 100.246094 177.152344 99.53125 177.152344 98.324219 174.828125 98.582031 174.828125 98.144531 174.828125 97.933594 175.0625 97.746094 175.445313 97.730469 176.558594 97.691406 177.066406 97.097656 177.066406 96.390625 177.066406 96.132813 176.988281 95.984375 176.886719 95.8125L176.886719 95.789063 177.609375 95.789063zM176.269531 96.265625C176.269531 96.917969 176.007813 97.425781 175.414063 97.425781 174.9375 97.425781 174.773438 97.050781 174.773438 96.421875 174.773438 95.78125 175.117188 95.371094 175.617188 95.371094 176.0625 95.371094 176.269531 95.773438 176.269531 96.265625zM176.394531 99.851563C176.394531 100.214844 175.992188 100.503906 175.21875 100.503906 174.429688 100.503906 174.097656 100.175781 174.097656 99.757813 174.097656 99.328125 174.351563 99.164063 174.617188 99 175.21875 99.117188 176.394531 99.21875 176.394531 99.851563" fill="#55a4e0" />
  <path d="M203.042969 95.550781L200.285156 95.550781 200.285156 95.910156C201.132813 95.910156 201.269531 96.066406 201.269531 96.867188L201.269531 98.074219C200.820313 98.40625 200.375 98.628906 199.683594 98.628906 198.089844 98.628906 197.117188 97.515625 197.117188 95.238281 197.117188 93.265625 198.03125 92.027344 199.605469 92.027344 200.789063 92.027344 201.570313 92.617188 201.828125 94.101563L202.203125 94.101563 202.203125 91.546875 201.882813 91.546875C201.738281 91.792969 201.671875 91.949219 201.480469 91.949219 201.203125 91.949219 200.820313 91.546875 199.59375 91.546875 197.496094 91.546875 195.957031 92.894531 195.957031 95.371094 195.957031 97.761719 197.164063 99.132813 199.527344 99.132813 200.753906 99.132813 201.480469 98.84375 202.28125 98.375L202.28125 96.757813C202.28125 96.066406 202.417969 95.910156 203.042969 95.910156L203.042969 95.550781M205.542969 93.632813L205.273438 93.632813 203.890625 93.96875 203.890625 94.28125C203.890625 94.28125 204.011719 94.257813 204.234375 94.257813 204.636719 94.257813 204.636719 94.457031 204.636719 94.859375L204.636719 97.925781C204.636719 98.550781 204.558594 98.6875 203.824219 98.6875L203.824219 99.011719 206.613281 99.011719 206.613281 98.6875C205.777344 98.6875 205.5625 98.574219 205.5625 97.871094L205.5625 95.328125C205.832031 94.882813 206.1875 94.414063 206.445313 94.414063 206.578125 94.414063 206.800781 94.792969 207.171875 94.792969 207.414063 94.792969 207.660156 94.613281 207.660156 94.191406 207.660156 93.8125 207.449219 93.566406 207.015625 93.566406 206.476563 93.566406 206.144531 93.957031 205.574219 94.78125L205.542969 94.78125 205.542969 93.632813M210.476563 93.597656C208.972656 93.597656 207.980469 94.691406 207.980469 96.308594 207.980469 98.117188 208.917969 99.121094 210.476563 99.121094 211.929688 99.121094 212.953125 98.140625 212.953125 96.265625 212.953125 94.613281 212.007813 93.597656 210.476563 93.597656zM210.433594 94.023438C211.425781 94.023438 211.929688 94.949219 211.929688 96.320313 211.929688 98.140625 211.4375 98.675781 210.523438 98.675781 209.5625 98.6875 209.015625 97.941406 209.015625 96.164063 209.015625 94.738281 209.585938 94.023438 210.433594 94.023438M219.425781 98.507813L219.3125 98.507813C218.777344 98.507813 218.644531 98.429688 218.644531 97.769531L218.644531 93.675781 218.375 93.675781 216.8125 93.84375 216.8125 94.15625C217.527344 94.15625 217.71875 94.214844 217.71875 94.804688L217.71875 97.738281C217.273438 98.128906 216.914063 98.40625 216.34375 98.40625 215.765625 98.40625 215.339844 98.074219 215.339844 96.933594L215.339844 93.675781 215.09375 93.675781 213.65625 93.84375 213.65625 94.15625C214.257813 94.167969 214.414063 94.214844 214.414063 94.816406L214.414063 97.082031C214.414063 98.597656 214.949219 99.121094 215.878906 99.121094 216.589844 99.121094 217.117188 98.785156 217.707031 98.207031L217.761719 98.207031 217.761719 99.066406 218.007813 99.066406 219.425781 98.808594 219.425781 98.507813M225.164063 95.585938C225.164063 94.300781 224.6875 93.597656 223.671875 93.597656 222.96875 93.597656 222.476563 94 221.875 94.535156L221.828125 94.535156 221.84375 93.632813 221.585938 93.632813 220.167969 93.957031 220.167969 94.28125C220.167969 94.28125 220.28125 94.257813 220.46875 94.257813 220.769531 94.257813 220.9375 94.347656 220.9375 94.75L220.9375 97.882813C220.9375 98.507813 220.90625 98.699219 220.15625 98.699219L220.15625 99.011719 222.714844 99.011719 222.714844 98.699219C221.90625 98.699219 221.863281 98.507813 221.863281 97.882813L221.863281 95.015625C222.199219 94.714844 222.609375 94.3125 223.214844 94.3125 223.714844 94.3125 224.242188 94.527344 224.242188 95.863281L224.242188 97.882813C224.242188 98.507813 224.207031 98.699219 223.414063 98.699219L223.414063 99.011719 225.992188 99.011719 225.992188 98.699219C225.242188 98.699219 225.164063 98.507813 225.164063 97.882813L225.164063 95.585938M231.933594 98.808594L231.933594 98.507813 231.699219 98.507813C231.289063 98.507813 231.140625 98.394531 231.140625 97.816406L231.140625 91.132813 230.839844 91.132813 229.4375 91.523438 229.4375 91.835938C229.4375 91.835938 229.625 91.816406 229.726563 91.816406 230.160156 91.816406 230.214844 91.914063 230.214844 92.40625L230.214844 93.867188C229.871094 93.675781 229.503906 93.597656 229.132813 93.597656 227.726563 93.597656 226.570313 94.726563 226.570313 96.566406 226.570313 97.996094 227.214844 99.097656 228.476563 99.097656 229.214844 99.097656 229.78125 98.675781 230.203125 98.296875L230.25 98.296875 230.25 99.066406 230.507813 99.066406zM230.214844 97.882813C229.828125 98.152344 229.523438 98.296875 229 98.296875 228.050781 98.296875 227.539063 97.671875 227.539063 96.132813 227.539063 94.726563 228.175781 94.046875 229.113281 94.046875 229.804688 94.046875 230.128906 94.480469 230.214844 94.9375L230.214844 97.882813M235.335938 97.179688L235.367188 99.097656 235.601563 99.097656 235.839844 98.84375 235.859375 98.84375C236.148438 98.964844 236.484375 99.132813 237.132813 99.132813 238.136719 99.132813 239.007813 98.730469 239.007813 97.683594 239.007813 96.855469 238.460938 96.445313 237.445313 95.910156 236.507813 95.429688 236.140625 95.152344 236.140625 94.714844 236.140625 94.214844 236.527344 93.980469 237.042969 93.980469 237.722656 93.980469 238.136719 94.300781 238.382813 95.363281L238.679688 95.363281 238.648438 93.65625 238.425781 93.65625 238.234375 93.890625 238.226563 93.890625C237.945313 93.753906 237.609375 93.597656 237.054688 93.597656 236.09375 93.597656 235.347656 94.089844 235.347656 95.003906 235.347656 95.832031 235.804688 96.222656 236.820313 96.734375 237.855469 97.246094 238.070313 97.460938 238.070313 97.984375 238.070313 98.507813 237.667969 98.71875 237.109375 98.71875 236.28125 98.71875 235.859375 98.328125 235.625 97.179688L235.335938 97.179688M242.570313 98.003906C242.289063 98.316406 242.144531 98.464844 241.789063 98.464844 241.351563 98.464844 241.253906 98.195313 241.253906 97.402344L241.253906 94.203125 242.511719 94.203125 242.511719 93.734375 241.253906 93.734375 241.265625 92.207031 240.972656 92.207031C240.570313 93.152344 240.238281 93.621094 239.714844 93.945313L239.714844 94.203125 240.328125 94.203125 240.328125 97.714844C240.328125 98.71875 240.648438 99.121094 241.398438 99.121094 242.109375 99.121094 242.34375 98.785156 242.78125 98.183594L242.570313 98.003906M246.335938 98.316406C246.402344 98.808594 246.515625 99.066406 247.007813 99.066406 247.574219 99.066406 247.84375 98.832031 248.210938 98.296875L248.042969 98.117188C247.886719 98.285156 247.730469 98.394531 247.519531 98.394531 247.285156 98.394531 247.183594 98.308594 247.183594 97.847656L247.183594 95.316406C247.183594 94.15625 246.726563 93.597656 245.511719 93.597656 244.296875 93.597656 243.546875 94.203125 243.546875 94.824219 243.546875 95.195313 243.792969 95.363281 244.015625 95.363281 244.328125 95.363281 244.507813 95.195313 244.507813 94.847656 244.507813 94.179688 244.617188 93.945313 245.253906 93.945313 245.921875 93.945313 246.257813 94.3125 246.257813 95.285156L246.257813 95.773438C245.296875 96.074219 243.324219 96.367188 243.324219 97.839844 243.324219 98.550781 243.792969 99.089844 244.652344 99.089844 245.367188 99.089844 245.765625 98.777344 246.292969 98.316406zM246.257813 97.984375C245.878906 98.296875 245.476563 98.472656 245.109375 98.472656 244.628906 98.472656 244.304688 98.128906 244.304688 97.570313 244.304688 96.699219 245.242188 96.398438 246.257813 96.144531L246.257813 97.984375M251.46875 98.003906C251.191406 98.316406 251.046875 98.464844 250.6875 98.464844 250.253906 98.464844 250.152344 98.195313 250.152344 97.402344L250.152344 94.203125 251.414063 94.203125 251.414063 93.734375 250.152344 93.734375 250.164063 92.207031 249.871094 92.207031C249.472656 93.152344 249.136719 93.621094 248.613281 93.945313L248.613281 94.203125 249.226563 94.203125 249.226563 97.714844C249.226563 98.71875 249.550781 99.121094 250.296875 99.121094 251.011719 99.121094 251.246094 98.785156 251.679688 98.183594L251.46875 98.003906M256.328125 97.414063C255.972656 97.882813 255.628906 98.285156 254.722656 98.285156 253.832031 98.285156 252.984375 97.582031 252.984375 96.042969L256.507813 96.042969C256.453125 94.480469 255.648438 93.597656 254.433594 93.597656 253.128906 93.597656 252.078125 94.492188 252.078125 96.355469 252.078125 98.152344 253.117188 99.121094 254.457031 99.121094 255.605469 99.121094 256.140625 98.417969 256.542969 97.570313zM252.972656 95.628906C253.0625 94.59375 253.507813 94.046875 254.265625 94.046875 255.058594 94.046875 255.425781 94.804688 255.460938 95.628906L252.972656 95.628906" />
  <path d="M 773.046875 264.654687 L 773.046875 959.576562" transform="matrix(.1 0 0 -.1 0 116.61)" fill="none" stroke-width="7.97" stroke-linecap="round" stroke-linejoin="round" stroke="#f3a203" stroke-miterlimit="10" />
  <path d="M 77.304688 94.007813 L 79.367188 88.539063 L 77.304688 90.34375 L 75.242188 88.539063" fill="#f3a203" />
  <path d="M 773.046875 226.021875 L 793.671875 280.709375 L 773.046875 262.6625 L 752.421875 280.709375 Z M 773.046875 226.021875" transform="matrix(.1 0 0 -.1 0 116.61)" fill="none" stroke-width="7.97" stroke-linecap="round" stroke="#f3a203" stroke-miterlimit="10" />
  <path d="M 815.585938 959.576562 C 815.585938 983.053125 796.523438 1002.076562 773.046875 1002.076562 C 749.570313 1002.076562 730.546875 983.053125 730.546875 959.576562 C 730.546875 936.060937 749.570313 917.0375 773.046875 917.0375 C 796.523438 917.0375 815.585938 936.060937 815.585938 959.576562 Z M 815.585938 959.576562" transform="matrix(.1 0 0 -.1 0 116.61)" fill="#fbc04f" stroke-width="7.97" stroke-linecap="round" stroke-linejoin="round" stroke="#000" stroke-miterlimit="10" />
  <path d="M 971.679688 587.115625 L 991.25 583.209375 C 1003.476563 580.748437 1015.46875 608.834375 1027.65625 606.4125 C 1036.5625 604.615625 1041.367188 588.404687 1046.210938 572.19375 C 1051.054688 555.982812 1055.859375 539.810937 1064.765625 538.014062 C 1073.671875 536.217187 1084.375 549.342187 1095.078125 562.428125 C 1105.78125 575.553125 1116.445313 588.639062 1125.351563 586.842187 C 1134.257813 585.084375 1139.0625 568.873437 1143.90625 552.6625 C 1148.75 536.451562 1153.554688 520.240625 1162.460938 518.482812 C 1171.367188 516.685937 1182.03125 529.810937 1192.734375 542.896875 C 1203.4375 555.982812 1214.101563 569.107812 1223.046875 567.310937 C 1231.953125 565.553125 1236.757813 549.342187 1241.601563 533.13125 C 1246.445313 516.920312 1251.25 500.709375 1260.15625 498.951562 C 1269.0625 497.154687 1279.726563 510.279687 1290.429688 523.365625 C 1301.132813 536.451562 1311.796875 549.576562 1320.703125 547.779687 C 1329.648438 545.982812 1334.453125 529.810937 1339.296875 513.6 C 1344.140625 497.389062 1348.945313 481.178125 1357.851563 479.420312 C 1370.78125 476.803125 1382.734375 504.889062 1394.960938 502.467187 L 1395 502.467187 L 1419.296875 497.584375" transform="matrix(.1 0 0 -.1 0 116.61)" fill="none" stroke-width="7.97" stroke-linecap="round" stroke-linejoin="round" stroke="#e14b3b" stroke-miterlimit="10" />
  <path d="M 145.714844 67.609375 L 140.757813 64.511719 L 142.121094 66.890625 L 139.949219 68.558594" fill="#e14b3b" />
  <path d="M 1457.148438 490.00625 L 1407.578125 520.982812 L 1421.210938 497.19375 L 1399.492188 480.514062 Z M 1457.148438 490.00625" transform="matrix(.1 0 0 -.1 0 116.61)" fill="none" stroke-width="7.97" stroke-linecap="round" stroke="#e14b3b" stroke-miterlimit="10" />
  <path d="M97.148438 46.933594L96.789063 46.933594C96.078125 48.285156 95.921875 48.585938 94.203125 48.574219L92.851563 48.574219 93.488281 45.441406 94.714844 45.441406C95.742188 45.441406 95.941406 45.5625 95.765625 46.488281L96.109375 46.488281 96.632813 43.902344 96.277344 43.902344C96.097656 44.804688 95.832031 45.015625 94.804688 45.015625L93.566406 45.015625 94.167969 42.113281 95.71875 42.113281C97.09375 42.113281 97.335938 42.394531 97.28125 43.511719L97.625 43.511719 97.929688 41.679688 92.21875 41.679688 92.148438 42.015625C93.0625 42.015625 93.175781 42.191406 92.996094 43.042969L92.015625 47.761719C91.859375 48.542969 91.59375 48.675781 90.820313 48.675781L90.753906 49.011719 96.546875 49.011719 97.148438 46.933594M99.273438 47.554688L99.078125 47.554688 98.09375 47.769531 98.09375 47.996094C98.09375 47.996094 98.242188 47.980469 98.34375 47.980469 98.601563 47.980469 98.640625 48.082031 98.640625 48.378906L98.640625 52.238281C98.640625 52.675781 98.5625 52.808594 98.070313 52.808594L98.070313 53.023438 100.042969 53.023438 100.042969 52.800781C99.4375 52.800781 99.289063 52.699219 99.289063 52.191406L99.289063 51.167969 99.320313 51.167969C99.546875 51.324219 99.808594 51.386719 100.105469 51.386719 101.039063 51.386719 101.8125 50.601563 101.8125 49.277344 101.8125 48.253906 101.273438 47.53125 100.503906 47.53125 100.042969 47.53125 99.667969 47.769531 99.296875 48.207031L99.273438 48.207031zM99.289063 48.535156C99.4375 48.339844 99.769531 48.058594 100.183594 48.058594 100.761719 48.058594 101.101563 48.511719 101.101563 49.496094 101.101563 50.578125 100.691406 51.082031 100.144531 51.082031 99.707031 51.082031 99.4375 50.734375 99.289063 50.570313L99.289063 48.535156M112.941406 45.363281L112.941406 44.605469 106.292969 44.605469 106.292969 45.363281zM112.941406 47.636719L112.941406 46.890625 106.292969 46.890625 106.292969 47.636719 112.941406 47.636719M123.046875 46.933594L122.691406 46.933594C121.976563 48.285156 121.820313 48.585938 120.101563 48.574219L118.753906 48.574219 119.386719 45.441406 120.617188 45.441406C121.640625 45.441406 121.84375 45.5625 121.664063 46.488281L122.007813 46.488281 122.535156 43.902344 122.179688 43.902344C121.996094 44.804688 121.730469 45.015625 120.703125 45.015625L119.464844 45.015625 120.070313 42.113281 121.617188 42.113281C122.992188 42.113281 123.238281 42.394531 123.179688 43.511719L123.527344 43.511719 123.828125 41.679688 118.117188 41.679688 118.050781 42.015625C118.964844 42.015625 119.078125 42.191406 118.898438 43.042969L117.914063 47.761719C117.757813 48.542969 117.492188 48.675781 116.722656 48.675781L116.65625 49.011719 122.445313 49.011719 123.046875 46.933594M126.964844 50.25C126.628906 50.648438 126.269531 50.804688 125.757813 50.804688 125.210938 50.804688 124.84375 50.539063 124.84375 49.773438L124.84375 49.636719C125.859375 49.550781 127.378906 49.136719 127.378906 47.996094 127.378906 47.414063 126.785156 47.28125 126.410156 47.28125 125.023438 47.28125 124.097656 48.660156 124.097656 49.976563 124.097656 50.703125 124.464844 51.417969 125.304688 51.417969 125.9375 51.417969 126.566406 51.207031 127.128906 50.40625zM124.875 49.355469C125.007813 48.511719 125.59375 47.570313 126.238281 47.570313 126.496094 47.570313 126.605469 47.722656 126.605469 48.027344 126.605469 48.816406 125.84375 49.300781 124.875 49.355469M131.292969 46.5L137.941406 46.5 137.941406 45.742188 131.292969 45.742188zM147.347656 46.933594L146.992188 46.933594C146.277344 48.285156 146.121094 48.585938 144.402344 48.574219L143.054688 48.574219 143.6875 45.441406 144.914063 45.441406C145.941406 45.441406 146.140625 45.5625 145.964844 46.488281L146.308594 46.488281 146.835938 43.902344 146.476563 43.902344C146.296875 44.804688 146.03125 45.015625 145.003906 45.015625L143.765625 45.015625 144.367188 42.113281 145.917969 42.113281C147.292969 42.113281 147.539063 42.394531 147.480469 43.511719L147.828125 43.511719 148.128906 41.679688 142.417969 41.679688 142.351563 42.015625C143.265625 42.015625 143.378906 42.191406 143.195313 43.042969L142.214844 47.761719C142.058594 48.542969 141.792969 48.675781 141.023438 48.675781L140.953125 49.011719 146.746094 49.011719 147.347656 46.933594M152.558594 47.523438L151.460938 47.523438C151.273438 47.390625 150.9375 47.28125 150.53125 47.28125 149.558594 47.28125 148.871094 47.863281 148.871094 48.691406 148.871094 49.363281 149.261719 49.644531 149.691406 49.820313L149.691406 49.882813C149.355469 50 148.972656 50.132813 148.972656 50.570313 148.972656 50.796875 149.121094 50.929688 149.230469 51.011719L149.230469 51.058594C148.714844 51.207031 148.21875 51.519531 148.21875 52.042969 148.21875 52.691406 148.707031 53.039063 150.015625 53.039063 151.320313 53.039063 152.050781 52.449219 152.050781 51.730469 152.050781 50.523438 149.730469 50.78125 149.730469 50.34375 149.730469 50.132813 149.964844 49.945313 150.34375 49.929688 151.460938 49.890625 151.964844 49.300781 151.964844 48.589844 151.964844 48.332031 151.886719 48.183594 151.785156 48.011719L151.785156 47.988281 152.511719 47.988281zM151.171875 48.464844C151.171875 49.121094 150.90625 49.628906 150.3125 49.628906 149.839844 49.628906 149.675781 49.253906 149.675781 48.621094 149.675781 47.980469 150.015625 47.570313 150.515625 47.570313 150.960938 47.570313 151.171875 47.972656 151.171875 48.464844zM151.296875 52.050781C151.296875 52.417969 150.890625 52.707031 150.117188 52.707031 149.332031 52.707031 148.996094 52.378906 148.996094 51.957031 148.996094 51.527344 149.253906 51.363281 149.519531 51.199219 150.117188 51.316406 151.296875 51.417969 151.296875 52.050781" fill="#e14b3b" />
</svg>