<svg width="441.6" height="249.267" viewBox="0 0 331.2 186.95" class="displayed_equation" xmlns="http://www.w3.org/2000/svg">
  <path d="M 468.203125 1427 L 2286.757813 1427" transform="matrix(.1 0 0 -.1 0 186.95)" fill="none" stroke-width="14.944" stroke-linecap="round" stroke-linejoin="round" stroke="#55a4e0" stroke-miterlimit="10" />
  <path d="M239.445313 44.574219L239.089844 44.574219C238.378906 45.925781 238.21875 46.226563 236.503906 46.214844L235.152344 46.214844 235.789063 43.078125 237.015625 43.078125C238.042969 43.078125 238.242188 43.203125 238.0625 44.128906L238.410156 44.128906 238.933594 41.539063 238.578125 41.539063C238.398438 42.445313 238.132813 42.65625 237.105469 42.65625L235.867188 42.65625 236.46875 39.753906 238.019531 39.753906C239.390625 39.753906 239.636719 40.035156 239.582031 41.148438L239.925781 41.148438 240.226563 39.320313 234.515625 39.320313 234.449219 39.65625C235.363281 39.65625 235.476563 39.832031 235.296875 40.679688L234.316406 45.398438C234.160156 46.179688 233.890625 46.316406 233.121094 46.316406L233.054688 46.648438 238.84375 46.648438 239.445313 44.574219M243.265625 47.992188C242.929688 48.386719 242.570313 48.542969 242.054688 48.542969 241.511719 48.542969 241.144531 48.277344 241.144531 47.515625L241.144531 47.375C242.15625 47.289063 243.679688 46.875 243.679688 45.738281 243.679688 45.152344 243.085938 45.019531 242.710938 45.019531 241.324219 45.019531 240.398438 46.398438 240.398438 47.71875 240.398438 48.441406 240.761719 49.160156 241.605469 49.160156 242.234375 49.160156 242.867188 48.949219 243.429688 48.144531zM241.175781 47.09375C241.308594 46.253906 241.890625 45.308594 242.539063 45.308594 242.796875 45.308594 242.90625 45.464844 242.90625 45.769531 242.90625 46.554688 242.140625 47.039063 241.175781 47.09375" fill="#55a4e0" />
  <path d="M262.273438 46.074219L261.914063 46.074219C261.480469 47.402344 261.277344 47.671875 259.550781 47.660156L258.109375 47.660156 258.109375 44.589844 259.414063 44.589844C260.441406 44.589844 260.664063 44.714844 260.664063 45.628906L261.023438 45.628906 261.023438 43.039063 260.664063 43.039063C260.664063 43.945313 260.441406 44.15625 259.414063 44.15625L258.109375 44.15625 258.109375 41.320313 259.75 41.320313C261.121094 41.320313 261.402344 41.535156 261.570313 42.648438L261.925781 42.648438 261.859375 40.820313 256.003906 40.820313 256.003906 41.15625C256.90625 41.15625 257.085938 41.332031 257.085938 42.179688L257.085938 46.832031C257.085938 47.703125 256.90625 47.816406 256.003906 47.816406L256.003906 48.148438 261.960938 48.148438 262.273438 46.074219M268.078125 48.148438L268.078125 47.828125C267.664063 47.828125 267.496094 47.625 267.183594 47.179688L265.8125 45.238281 266.996094 43.71875C267.253906 43.398438 267.507813 43.195313 267.886719 43.195313L267.886719 42.871094 266.046875 42.871094 266.046875 43.1875C266.402344 43.1875 266.503906 43.285156 266.503906 43.453125 266.503906 43.632813 266.402344 43.796875 266.101563 44.210938L265.578125 44.96875 265.535156 44.96875 265.265625 44.480469C264.886719 43.855469 264.6875 43.621094 264.6875 43.441406 264.6875 43.273438 264.863281 43.1875 265.222656 43.1875L265.222656 42.871094 262.824219 42.871094 262.824219 43.195313C263.28125 43.195313 263.414063 43.308594 263.804688 43.867188L264.964844 45.527344 263.628906 47.269531C263.257813 47.703125 263.054688 47.828125 262.679688 47.828125L262.679688 48.148438 264.539063 48.148438 264.539063 47.828125C264.171875 47.828125 264.039063 47.78125 264.039063 47.660156 264.039063 47.570313 264.195313 47.367188 264.304688 47.191406L265.222656 45.871094 265.265625 45.871094 265.488281 46.265625 266.191406 47.347656C266.246094 47.4375 266.269531 47.503906 266.269531 47.582031 266.269531 47.769531 266.136719 47.828125 265.746094 47.828125L265.746094 48.148438 268.078125 48.148438M272.453125 46.496094C271.949219 47.144531 271.570313 47.425781 270.84375 47.425781 269.695313 47.425781 269.148438 46.464844 269.148438 45.105469 269.148438 43.820313 269.695313 43.152344 270.601563 43.152344 271.558594 43.152344 271.191406 44.421875 272.015625 44.421875 272.328125 44.421875 272.484375 44.246094 272.484375 43.921875 272.484375 43.273438 271.839844 42.738281 270.789063 42.738281 269.183594 42.738281 268.269531 43.878906 268.269531 45.628906 268.269531 47.179688 269.105469 48.261719 270.5 48.261719 271.695313 48.261719 272.238281 47.558594 272.664063 46.65625L272.453125 46.496094M274.515625 40.417969C274.128906 40.417969 273.882813 40.710938 273.882813 41.042969 273.882813 41.390625 274.140625 41.679688 274.515625 41.679688 274.90625 41.679688 275.152344 41.390625 275.152344 41.042969 275.152344 40.710938 274.90625 40.417969 274.515625 40.417969zM275.765625 47.835938C275.019531 47.835938 274.964844 47.671875 274.964844 47.023438L274.964844 42.773438 274.671875 42.773438 273.269531 43.085938 273.269531 43.40625C273.269531 43.40625 273.390625 43.386719 273.546875 43.386719 273.871094 43.386719 274.039063 43.429688 274.039063 43.910156L274.039063 47.023438C274.039063 47.660156 274.003906 47.835938 273.257813 47.835938L273.257813 48.148438 275.765625 48.148438 275.765625 47.835938M279.367188 47.144531C279.089844 47.457031 278.945313 47.601563 278.589844 47.601563 278.152344 47.601563 278.054688 47.335938 278.054688 46.542969L278.054688 43.34375 279.3125 43.34375 279.3125 42.871094 278.054688 42.871094 278.0625 41.34375 277.773438 41.34375C277.371094 42.292969 277.039063 42.761719 276.511719 43.085938L276.511719 43.34375 277.128906 43.34375 277.128906 46.855469C277.128906 47.859375 277.449219 48.261719 278.195313 48.261719 278.910156 48.261719 279.144531 47.925781 279.582031 47.324219L279.367188 47.144531M284.230469 46.554688C283.871094 47.023438 283.527344 47.425781 282.621094 47.425781 281.730469 47.425781 280.882813 46.722656 280.882813 45.183594L284.40625 45.183594C284.351563 43.621094 283.550781 42.738281 282.332031 42.738281 281.027344 42.738281 279.980469 43.632813 279.980469 45.496094 279.980469 47.289063 281.015625 48.261719 282.355469 48.261719 283.503906 48.261719 284.039063 47.558594 284.441406 46.710938zM280.871094 44.769531C280.960938 43.734375 281.40625 43.1875 282.164063 43.1875 282.957031 43.1875 283.328125 43.945313 283.359375 44.769531L280.871094 44.769531M290.535156 47.949219L290.535156 47.648438 290.300781 47.648438C289.886719 47.648438 289.742188 47.535156 289.742188 46.957031L289.742188 40.273438 289.441406 40.273438 288.035156 40.664063 288.035156 40.976563C288.035156 40.976563 288.226563 40.953125 288.324219 40.953125 288.761719 40.953125 288.816406 41.054688 288.816406 41.546875L288.816406 43.007813C288.46875 42.816406 288.101563 42.738281 287.734375 42.738281 286.328125 42.738281 285.167969 43.867188 285.167969 45.707031 285.167969 47.132813 285.816406 48.238281 287.078125 48.238281 287.8125 48.238281 288.382813 47.816406 288.804688 47.4375L288.851563 47.4375 288.851563 48.207031 289.105469 48.207031zM288.816406 47.023438C288.425781 47.289063 288.125 47.4375 287.601563 47.4375 286.652344 47.4375 286.140625 46.8125 286.140625 45.273438 286.140625 43.867188 286.773438 43.1875 287.714844 43.1875 288.402344 43.1875 288.726563 43.621094 288.816406 44.078125L288.816406 47.023438M293.835938 46.320313L293.867188 48.238281 294.101563 48.238281 294.339844 47.984375 294.359375 47.984375C294.648438 48.105469 294.984375 48.273438 295.632813 48.273438 296.636719 48.273438 297.507813 47.871094 297.507813 46.820313 297.507813 45.996094 296.960938 45.585938 295.945313 45.046875 295.007813 44.570313 294.640625 44.289063 294.640625 43.855469 294.640625 43.351563 295.027344 43.117188 295.542969 43.117188 296.222656 43.117188 296.636719 43.441406 296.882813 44.503906L297.179688 44.503906 297.148438 42.796875 296.925781 42.796875 296.734375 43.03125 296.726563 43.03125C296.445313 42.894531 296.109375 42.738281 295.554688 42.738281 294.59375 42.738281 293.847656 43.230469 293.847656 44.144531 293.847656 44.96875 294.304688 45.359375 295.320313 45.871094 296.355469 46.386719 296.570313 46.601563 296.570313 47.121094 296.570313 47.648438 296.167969 47.859375 295.609375 47.859375 294.78125 47.859375 294.359375 47.46875 294.125 46.320313L293.835938 46.320313M301.167969 47.144531C300.890625 47.457031 300.746094 47.601563 300.386719 47.601563 299.953125 47.601563 299.851563 47.335938 299.851563 46.542969L299.851563 43.34375 301.113281 43.34375 301.113281 42.871094 299.851563 42.871094 299.863281 41.34375 299.574219 41.34375C299.171875 42.292969 298.839844 42.761719 298.3125 43.085938L298.3125 43.34375 298.925781 43.34375 298.925781 46.855469C298.925781 47.859375 299.25 48.261719 299.996094 48.261719 300.710938 48.261719 300.945313 47.925781 301.382813 47.324219L301.167969 47.144531M304.835938 47.457031C304.902344 47.949219 305.015625 48.207031 305.507813 48.207031 306.074219 48.207031 306.34375 47.972656 306.710938 47.4375L306.542969 47.257813C306.386719 47.425781 306.230469 47.535156 306.019531 47.535156 305.785156 47.535156 305.683594 47.445313 305.683594 46.988281L305.683594 44.457031C305.683594 43.296875 305.226563 42.738281 304.011719 42.738281 302.796875 42.738281 302.046875 43.34375 302.046875 43.964844 302.046875 44.335938 302.292969 44.503906 302.515625 44.503906 302.828125 44.503906 303.007813 44.335938 303.007813 43.988281 303.007813 43.320313 303.117188 43.085938 303.753906 43.085938 304.421875 43.085938 304.757813 43.453125 304.757813 44.421875L304.757813 44.914063C303.796875 45.214844 301.824219 45.507813 301.824219 46.976563 301.824219 47.691406 302.292969 48.226563 303.152344 48.226563 303.867188 48.226563 304.265625 47.914063 304.792969 47.457031zM304.757813 47.121094C304.378906 47.4375 303.976563 47.613281 303.609375 47.613281 303.128906 47.613281 302.804688 47.269531 302.804688 46.710938 302.804688 45.839844 303.742188 45.539063 304.757813 45.28125L304.757813 47.121094M310.070313 47.144531C309.789063 47.457031 309.644531 47.601563 309.289063 47.601563 308.851563 47.601563 308.753906 47.335938 308.753906 46.542969L308.753906 43.34375 310.011719 43.34375 310.011719 42.871094 308.753906 42.871094 308.765625 41.34375 308.472656 41.34375C308.070313 42.292969 307.738281 42.761719 307.214844 43.085938L307.214844 43.34375 307.828125 43.34375 307.828125 46.855469C307.828125 47.859375 308.148438 48.261719 308.898438 48.261719 309.609375 48.261719 309.84375 47.925781 310.28125 47.324219L310.070313 47.144531M314.929688 46.554688C314.574219 47.023438 314.226563 47.425781 313.324219 47.425781 312.429688 47.425781 311.582031 46.722656 311.582031 45.183594L315.109375 45.183594C315.054688 43.621094 314.25 42.738281 313.03125 42.738281 311.726563 42.738281 310.679688 43.632813 310.679688 45.496094 310.679688 47.289063 311.71875 48.261719 313.054688 48.261719 314.203125 48.261719 314.742188 47.558594 315.140625 46.710938zM311.570313 44.769531C311.660156 43.734375 312.109375 43.1875 312.867188 43.1875 313.65625 43.1875 314.027344 43.945313 314.058594 44.769531L311.570313 44.769531" />
  <path d="M 468.203125 214.65625 L 2286.757813 214.65625" transform="matrix(.1 0 0 -.1 0 186.95)" fill="none" stroke-width="14.944" stroke-linecap="round" stroke-linejoin="round" stroke="#55a4e0" stroke-miterlimit="10" />
  <path d="M239.445313 165.074219L239.089844 165.074219C238.378906 166.425781 238.21875 166.726563 236.503906 166.714844L235.152344 166.714844 235.789063 163.578125 237.015625 163.578125C238.042969 163.578125 238.242188 163.703125 238.0625 164.628906L238.410156 164.628906 238.933594 162.039063 238.578125 162.039063C238.398438 162.945313 238.132813 163.15625 237.105469 163.15625L235.867188 163.15625 236.46875 160.253906 238.019531 160.253906C239.390625 160.253906 239.636719 160.535156 239.582031 161.648438L239.925781 161.648438 240.226563 159.820313 234.515625 159.820313 234.449219 160.15625C235.363281 160.15625 235.476563 160.332031 235.296875 161.179688L234.316406 165.898438C234.160156 166.679688 233.890625 166.816406 233.121094 166.816406L233.054688 167.148438 238.84375 167.148438 239.445313 165.074219M244.558594 165.664063L243.460938 165.664063C243.273438 165.53125 242.9375 165.421875 242.53125 165.421875 241.558594 165.421875 240.871094 166.003906 240.871094 166.832031 240.871094 167.5 241.261719 167.78125 241.691406 167.960938L241.691406 168.023438C241.355469 168.140625 240.972656 168.273438 240.972656 168.710938 240.972656 168.9375 241.121094 169.070313 241.230469 169.152344L241.230469 169.199219C240.714844 169.347656 240.21875 169.660156 240.21875 170.183594 240.21875 170.828125 240.707031 171.179688 242.015625 171.179688 243.320313 171.179688 244.050781 170.585938 244.050781 169.871094 244.050781 168.664063 241.730469 168.921875 241.730469 168.484375 241.730469 168.273438 241.964844 168.085938 242.34375 168.070313 243.460938 168.03125 243.964844 167.4375 243.964844 166.730469 243.964844 166.472656 243.886719 166.324219 243.785156 166.152344L243.785156 166.128906 244.511719 166.128906zM243.171875 166.605469C243.171875 167.257813 242.90625 167.765625 242.3125 167.765625 241.839844 167.765625 241.675781 167.390625 241.675781 166.761719 241.675781 166.121094 242.015625 165.710938 242.515625 165.710938 242.960938 165.710938 243.171875 166.113281 243.171875 166.605469zM243.296875 170.191406C243.296875 170.554688 242.890625 170.84375 242.117188 170.84375 241.332031 170.84375 240.996094 170.515625 240.996094 170.097656 240.996094 169.667969 241.253906 169.503906 241.519531 169.339844 242.117188 169.457031 243.296875 169.558594 243.296875 170.191406" fill="#55a4e0" />
  <path d="M261.640625 165.890625L258.886719 165.890625 258.886719 166.25C259.734375 166.25 259.867188 166.40625 259.867188 167.207031L259.867188 168.414063C259.421875 168.746094 258.976563 168.96875 258.285156 168.96875 256.6875 168.96875 255.71875 167.855469 255.71875 165.578125 255.71875 163.605469 256.632813 162.367188 258.207031 162.367188 259.390625 162.367188 260.167969 162.957031 260.425781 164.441406L260.804688 164.441406 260.804688 161.886719 260.480469 161.886719C260.339844 162.132813 260.269531 162.289063 260.078125 162.289063 259.800781 162.289063 259.421875 161.886719 258.195313 161.886719 256.097656 161.886719 254.558594 163.234375 254.558594 165.710938 254.558594 168.101563 255.761719 169.472656 258.128906 169.472656 259.355469 169.472656 260.078125 169.183594 260.882813 168.714844L260.882813 167.097656C260.882813 166.40625 261.015625 166.25 261.640625 166.25L261.640625 165.890625M264.042969 163.972656L263.773438 163.972656 262.390625 164.308594 262.390625 164.621094C262.390625 164.621094 262.511719 164.597656 262.734375 164.597656 263.136719 164.597656 263.136719 164.796875 263.136719 165.199219L263.136719 168.265625C263.136719 168.890625 263.058594 169.027344 262.324219 169.027344L262.324219 169.351563 265.113281 169.351563 265.113281 169.027344C264.277344 169.027344 264.0625 168.914063 264.0625 168.210938L264.0625 165.667969C264.332031 165.222656 264.6875 164.753906 264.945313 164.753906 265.078125 164.753906 265.300781 165.132813 265.671875 165.132813 265.914063 165.132813 266.160156 164.953125 266.160156 164.53125 266.160156 164.152344 265.949219 163.90625 265.515625 163.90625 264.976563 163.90625 264.644531 164.296875 264.074219 165.121094L264.042969 165.121094 264.042969 163.972656M269.078125 163.9375C267.570313 163.9375 266.578125 165.03125 266.578125 166.648438 266.578125 168.457031 267.515625 169.460938 269.078125 169.460938 270.527344 169.460938 271.554688 168.480469 271.554688 166.605469 271.554688 164.953125 270.605469 163.9375 269.078125 163.9375zM269.035156 164.363281C270.027344 164.363281 270.527344 165.289063 270.527344 166.660156 270.527344 168.480469 270.039063 169.015625 269.121094 169.015625 268.164063 169.027344 267.617188 168.28125 267.617188 166.503906 267.617188 165.078125 268.1875 164.363281 269.035156 164.363281M277.925781 168.847656L277.8125 168.847656C277.277344 168.847656 277.144531 168.769531 277.144531 168.109375L277.144531 164.015625 276.875 164.015625 275.3125 164.183594 275.3125 164.496094C276.027344 164.496094 276.21875 164.554688 276.21875 165.144531L276.21875 168.078125C275.773438 168.46875 275.414063 168.746094 274.84375 168.746094 274.265625 168.746094 273.839844 168.414063 273.839844 167.273438L273.839844 164.015625 273.59375 164.015625 272.15625 164.183594 272.15625 164.496094C272.757813 164.507813 272.914063 164.554688 272.914063 165.15625L272.914063 167.421875C272.914063 168.9375 273.449219 169.460938 274.378906 169.460938 275.089844 169.460938 275.617188 169.125 276.207031 168.546875L276.261719 168.546875 276.261719 169.40625 276.507813 169.40625 277.925781 169.148438 277.925781 168.847656M283.664063 165.925781C283.664063 164.640625 283.1875 163.9375 282.171875 163.9375 281.46875 163.9375 280.976563 164.339844 280.375 164.875L280.328125 164.875 280.34375 163.972656 280.085938 163.972656 278.667969 164.296875 278.667969 164.621094C278.667969 164.621094 278.78125 164.597656 278.96875 164.597656 279.269531 164.597656 279.4375 164.6875 279.4375 165.089844L279.4375 168.222656C279.4375 168.847656 279.40625 169.039063 278.65625 169.039063L278.65625 169.351563 281.214844 169.351563 281.214844 169.039063C280.40625 169.039063 280.363281 168.847656 280.363281 168.222656L280.363281 165.355469C280.699219 165.054688 281.109375 164.652344 281.714844 164.652344 282.214844 164.652344 282.742188 164.867188 282.742188 166.203125L282.742188 168.222656C282.742188 168.847656 282.707031 169.039063 281.914063 169.039063L281.914063 169.351563 284.492188 169.351563 284.492188 169.039063C283.742188 169.039063 283.664063 168.847656 283.664063 168.222656L283.664063 165.925781M290.535156 169.148438L290.535156 168.847656 290.300781 168.847656C289.886719 168.847656 289.742188 168.734375 289.742188 168.15625L289.742188 161.472656 289.441406 161.472656 288.035156 161.863281 288.035156 162.175781C288.035156 162.175781 288.226563 162.15625 288.324219 162.15625 288.761719 162.15625 288.816406 162.253906 288.816406 162.746094L288.816406 164.207031C288.46875 164.015625 288.101563 163.9375 287.734375 163.9375 286.328125 163.9375 285.167969 165.066406 285.167969 166.90625 285.167969 168.335938 285.816406 169.4375 287.078125 169.4375 287.8125 169.4375 288.382813 169.015625 288.804688 168.636719L288.851563 168.636719 288.851563 169.40625 289.105469 169.40625zM288.816406 168.222656C288.425781 168.492188 288.125 168.636719 287.601563 168.636719 286.652344 168.636719 286.140625 168.011719 286.140625 166.472656 286.140625 165.066406 286.773438 164.386719 287.714844 164.386719 288.402344 164.386719 288.726563 164.820313 288.816406 165.277344L288.816406 168.222656M293.835938 167.519531L293.867188 169.4375 294.101563 169.4375 294.339844 169.183594 294.359375 169.183594C294.648438 169.304688 294.984375 169.472656 295.632813 169.472656 296.636719 169.472656 297.507813 169.070313 297.507813 168.023438 297.507813 167.195313 296.960938 166.785156 295.945313 166.25 295.007813 165.769531 294.640625 165.492188 294.640625 165.054688 294.640625 164.554688 295.027344 164.320313 295.542969 164.320313 296.222656 164.320313 296.636719 164.640625 296.882813 165.703125L297.179688 165.703125 297.148438 163.996094 296.925781 163.996094 296.734375 164.230469 296.726563 164.230469C296.445313 164.09375 296.109375 163.9375 295.554688 163.9375 294.59375 163.9375 293.847656 164.429688 293.847656 165.34375 293.847656 166.171875 294.304688 166.5625 295.320313 167.074219 296.355469 167.585938 296.570313 167.800781 296.570313 168.324219 296.570313 168.847656 296.167969 169.058594 295.609375 169.058594 294.78125 169.058594 294.359375 168.667969 294.125 167.519531L293.835938 167.519531M301.167969 168.34375C300.890625 168.65625 300.746094 168.804688 300.386719 168.804688 299.953125 168.804688 299.851563 168.535156 299.851563 167.742188L299.851563 164.542969 301.113281 164.542969 301.113281 164.074219 299.851563 164.074219 299.863281 162.546875 299.574219 162.546875C299.171875 163.492188 298.839844 163.960938 298.3125 164.285156L298.3125 164.542969 298.925781 164.542969 298.925781 168.054688C298.925781 169.058594 299.25 169.460938 299.996094 169.460938 300.710938 169.460938 300.945313 169.125 301.382813 168.523438L301.167969 168.34375M304.835938 168.65625C304.902344 169.148438 305.015625 169.40625 305.507813 169.40625 306.074219 169.40625 306.34375 169.171875 306.710938 168.636719L306.542969 168.457031C306.386719 168.625 306.230469 168.734375 306.019531 168.734375 305.785156 168.734375 305.683594 168.648438 305.683594 168.1875L305.683594 165.65625C305.683594 164.496094 305.226563 163.9375 304.011719 163.9375 302.796875 163.9375 302.046875 164.542969 302.046875 165.164063 302.046875 165.535156 302.292969 165.703125 302.515625 165.703125 302.828125 165.703125 303.007813 165.535156 303.007813 165.1875 303.007813 164.519531 303.117188 164.285156 303.753906 164.285156 304.421875 164.285156 304.757813 164.652344 304.757813 165.625L304.757813 166.113281C303.796875 166.414063 301.824219 166.707031 301.824219 168.179688 301.824219 168.890625 302.292969 169.429688 303.152344 169.429688 303.867188 169.429688 304.265625 169.117188 304.792969 168.65625zM304.757813 168.324219C304.378906 168.636719 303.976563 168.8125 303.609375 168.8125 303.128906 168.8125 302.804688 168.46875 302.804688 167.910156 302.804688 167.039063 303.742188 166.738281 304.757813 166.484375L304.757813 168.324219M310.070313 168.34375C309.789063 168.65625 309.644531 168.804688 309.289063 168.804688 308.851563 168.804688 308.753906 168.535156 308.753906 167.742188L308.753906 164.542969 310.011719 164.542969 310.011719 164.074219 308.753906 164.074219 308.765625 162.546875 308.472656 162.546875C308.070313 163.492188 307.738281 163.960938 307.214844 164.285156L307.214844 164.542969 307.828125 164.542969 307.828125 168.054688C307.828125 169.058594 308.148438 169.460938 308.898438 169.460938 309.609375 169.460938 309.84375 169.125 310.28125 168.523438L310.070313 168.34375M314.929688 167.753906C314.574219 168.222656 314.226563 168.625 313.324219 168.625 312.429688 168.625 311.582031 167.921875 311.582031 166.382813L315.109375 166.382813C315.054688 164.820313 314.25 163.9375 313.03125 163.9375 311.726563 163.9375 310.679688 164.832031 310.679688 166.695313 310.679688 168.492188 311.71875 169.460938 313.054688 169.460938 314.203125 169.460938 314.742188 168.757813 315.140625 167.910156zM311.570313 165.96875C311.660156 164.933594 312.109375 164.386719 312.867188 164.386719 313.65625 164.386719 314.027344 165.144531 314.058594 165.96875L311.570313 165.96875" />
  <path d="M 1256.210938 264.617188 L 1256.210938 1427" transform="matrix(.1 0 0 -.1 0 186.95)" fill="none" stroke-width="7.97" stroke-linecap="round" stroke-linejoin="round" stroke="#f3a203" stroke-miterlimit="10" />
  <path d="M 125.621094 164.351563 L 127.6875 158.882813 L 125.621094 160.6875 L 123.558594 158.882813" fill="#f3a203" />
  <path d="M 1256.210938 225.984375 L 1276.875 280.671875 L 1256.210938 262.625 L 1235.585938 280.671875 Z M 1256.210938 225.984375" transform="matrix(.1 0 0 -.1 0 186.95)" fill="none" stroke-width="7.97" stroke-linecap="round" stroke="#f3a203" stroke-miterlimit="10" />
  <path d="M 1298.75 1427 C 1298.75 1450.476563 1279.726563 1469.539063 1256.210938 1469.539063 C 1232.734375 1469.539063 1213.710938 1450.476563 1213.710938 1427 C 1213.710938 1403.523438 1232.734375 1384.5 1256.210938 1384.5 C 1279.726563 1384.5 1298.75 1403.523438 1298.75 1427 Z M 1298.75 1427" transform="matrix(.1 0 0 -.1 0 186.95)" fill="#fbc04f" stroke-width="7.97" stroke-linecap="round" stroke-linejoin="round" stroke="#000" stroke-miterlimit="10" />
  <path d="M 559.140625 1730.085938 L 577.96875 1723.484375 C 589.726563 1719.382813 605.507813 1745.554688 617.226563 1741.414063 C 625.820313 1738.40625 628.320313 1721.726563 630.898438 1704.96875 C 633.4375 1688.25 635.9375 1671.53125 644.53125 1668.5625 C 653.085938 1665.554688 665.46875 1677.039063 677.890625 1688.523438 C 690.3125 1700.007813 702.695313 1711.53125 711.289063 1708.523438 C 719.84375 1705.515625 722.34375 1688.796875 724.921875 1672.078125 C 727.460938 1655.359375 729.960938 1638.640625 738.554688 1635.632813 C 747.109375 1632.625 759.492188 1644.148438 771.914063 1655.632813 C 784.335938 1667.117188 796.71875 1678.601563 805.3125 1675.59375 C 813.90625 1672.585938 816.40625 1655.90625 818.945313 1639.148438 C 821.484375 1622.429688 823.984375 1605.710938 832.578125 1602.742188 C 841.171875 1599.734375 853.515625 1611.21875 865.9375 1622.703125 C 878.359375 1634.1875 890.742188 1645.710938 899.335938 1642.703125 C 907.929688 1639.695313 910.429688 1622.976563 912.96875 1606.257813 C 915.507813 1589.539063 918.007813 1572.820313 926.601563 1569.8125 C 935.195313 1566.804688 947.578125 1578.328125 960 1589.8125 C 972.421875 1601.296875 984.804688 1612.78125 993.359375 1609.773438 C 1001.953125 1606.765625 1004.453125 1590.085938 1006.992188 1573.328125 C 1009.53125 1556.609375 1012.03125 1539.890625 1020.625 1536.921875 C 1033.828125 1532.3125 1049.570313 1558.445313 1061.328125 1554.34375 L 1061.40625 1554.304688 L 1117.96875 1534.5" transform="matrix(.1 0 0 -.1 0 186.95)" fill="none" stroke-width="7.97" stroke-linecap="round" stroke-linejoin="round" stroke="#e14b3b" stroke-miterlimit="10" />
  <path d="M 115.457031 34.78125 L 110.960938 31.015625 L 111.988281 33.566406 L 109.59375 34.921875" fill="#e14b3b" />
  <path d="M 1154.570313 1521.6875 L 1109.609375 1559.34375 L 1119.882813 1533.835938 L 1095.9375 1520.28125 Z M 1154.570313 1521.6875" transform="matrix(.1 0 0 -.1 0 186.95)" fill="none" stroke-width="7.995" stroke-linecap="round" stroke="#e14b3b" stroke-miterlimit="10" />
  <path d="M21.945313 31.675781L21.589844 31.675781C20.875 33.023438 20.71875 33.328125 19 33.316406L17.652344 33.316406 18.289063 30.179688 19.515625 30.179688C20.542969 30.179688 20.742188 30.304688 20.5625 31.226563L20.910156 31.226563 21.433594 28.640625 21.078125 28.640625C20.898438 29.542969 20.632813 29.757813 19.605469 29.757813L18.367188 29.757813 18.96875 26.855469 20.519531 26.855469C21.890625 26.855469 22.136719 27.132813 22.082031 28.25L22.425781 28.25 22.726563 26.421875 17.015625 26.421875 16.949219 26.753906C17.863281 26.753906 17.976563 26.933594 17.796875 27.78125L16.816406 32.5C16.660156 33.28125 16.390625 33.414063 15.621094 33.414063L15.554688 33.75 21.34375 33.75 21.945313 31.675781M24.070313 32.394531L23.875 32.394531 22.894531 32.609375 22.894531 32.835938C22.894531 32.835938 23.042969 32.820313 23.144531 32.820313 23.402344 32.820313 23.441406 32.921875 23.441406 33.21875L23.441406 37.078125C23.441406 37.515625 23.363281 37.648438 22.871094 37.648438L22.871094 37.863281 24.84375 37.863281 24.84375 37.640625C24.234375 37.640625 24.085938 37.535156 24.085938 37.03125L24.085938 36.007813 24.117188 36.007813C24.34375 36.164063 24.609375 36.226563 24.90625 36.226563 25.839844 36.226563 26.613281 35.441406 26.613281 34.117188 26.613281 33.09375 26.074219 32.371094 25.304688 32.371094 24.84375 32.371094 24.46875 32.609375 24.09375 33.046875L24.070313 33.046875zM24.085938 33.375C24.234375 33.179688 24.570313 32.898438 24.984375 32.898438 25.5625 32.898438 25.902344 33.351563 25.902344 34.335938 25.902344 35.417969 25.492188 35.921875 24.945313 35.921875 24.507813 35.921875 24.234375 35.574219 24.085938 35.410156L24.085938 33.375M37.839844 30.101563L37.839844 29.34375 31.191406 29.34375 31.191406 30.101563zM37.839844 32.378906L37.839844 31.628906 31.191406 31.628906 31.191406 32.378906 37.839844 32.378906M47.847656 31.675781L47.492188 31.675781C46.777344 33.023438 46.621094 33.328125 44.902344 33.316406L43.554688 33.316406 44.1875 30.179688 45.414063 30.179688C46.441406 30.179688 46.640625 30.304688 46.464844 31.226563L46.808594 31.226563 47.335938 28.640625 46.976563 28.640625C46.796875 29.542969 46.53125 29.757813 45.503906 29.757813L44.265625 29.757813 44.867188 26.855469 46.417969 26.855469C47.792969 26.855469 48.039063 27.132813 47.980469 28.25L48.328125 28.25 48.628906 26.421875 42.917969 26.421875 42.851563 26.753906C43.765625 26.753906 43.875 26.933594 43.695313 27.78125L42.714844 32.5C42.558594 33.28125 42.292969 33.414063 41.523438 33.414063L41.453125 33.75 47.246094 33.75 47.847656 31.675781M51.765625 35.089844C51.429688 35.488281 51.070313 35.644531 50.554688 35.644531 50.011719 35.644531 49.644531 35.378906 49.644531 34.613281L49.644531 34.476563C50.65625 34.390625 52.179688 33.976563 52.179688 32.835938 52.179688 32.253906 51.585938 32.121094 51.210938 32.121094 49.824219 32.121094 48.898438 33.5 48.898438 34.816406 48.898438 35.542969 49.261719 36.257813 50.105469 36.257813 50.734375 36.257813 51.367188 36.046875 51.929688 35.246094zM49.675781 34.195313C49.808594 33.351563 50.390625 32.410156 51.039063 32.410156 51.296875 32.410156 51.40625 32.5625 51.40625 32.867188 51.40625 33.65625 50.640625 34.140625 49.675781 34.195313M56.09375 31.238281L62.742188 31.238281 62.742188 30.480469 56.09375 30.480469zM72.246094 31.675781L71.890625 31.675781C71.175781 33.023438 71.019531 33.328125 69.300781 33.316406L67.953125 33.316406 68.585938 30.179688 69.816406 30.179688C70.84375 30.179688 71.042969 30.304688 70.863281 31.226563L71.210938 31.226563 71.734375 28.640625 71.378906 28.640625C71.199219 29.542969 70.929688 29.757813 69.90625 29.757813L68.664063 29.757813 69.269531 26.855469 70.820313 26.855469C72.191406 26.855469 72.4375 27.132813 72.382813 28.25L72.726563 28.25 73.027344 26.421875 67.316406 26.421875 67.25 26.753906C68.164063 26.753906 68.277344 26.933594 68.097656 27.78125L67.117188 32.5C66.960938 33.28125 66.691406 33.414063 65.921875 33.414063L65.855469 33.75 71.644531 33.75 72.246094 31.675781M77.359375 32.363281L76.257813 32.363281C76.070313 32.230469 75.738281 32.121094 75.332031 32.121094 74.359375 32.121094 73.671875 32.703125 73.671875 33.53125 73.671875 34.203125 74.0625 34.484375 74.492188 34.660156L74.492188 34.722656C74.15625 34.839844 73.773438 34.972656 73.773438 35.410156 73.773438 35.636719 73.921875 35.769531 74.03125 35.851563L74.03125 35.898438C73.515625 36.046875 73.015625 36.359375 73.015625 36.882813 73.015625 37.53125 73.507813 37.878906 74.816406 37.878906 76.117188 37.878906 76.851563 37.285156 76.851563 36.570313 76.851563 35.363281 74.53125 35.621094 74.53125 35.183594 74.53125 34.972656 74.761719 34.785156 75.144531 34.769531 76.257813 34.730469 76.765625 34.140625 76.765625 33.429688 76.765625 33.171875 76.6875 33.023438 76.585938 32.851563L76.585938 32.828125 77.3125 32.828125zM75.96875 33.304688C75.96875 33.960938 75.707031 34.46875 75.113281 34.46875 74.636719 34.46875 74.476563 34.09375 74.476563 33.460938 74.476563 32.820313 74.816406 32.410156 75.316406 32.410156 75.761719 32.410156 75.96875 32.8125 75.96875 33.304688zM76.09375 36.890625C76.09375 37.257813 75.691406 37.546875 74.917969 37.546875 74.132813 37.546875 73.796875 37.21875 73.796875 36.796875 73.796875 36.367188 74.054688 36.203125 74.320313 36.039063 74.917969 36.15625 76.09375 36.257813 76.09375 36.890625" fill="#e14b3b" />
  <path d="M 1438.085938 1305.789063 L 1456.953125 1299.1875 C 1468.710938 1295.046875 1484.453125 1321.21875 1496.210938 1317.117188 C 1504.804688 1314.109375 1507.304688 1297.390625 1509.84375 1280.671875 C 1512.382813 1263.953125 1514.882813 1247.234375 1523.476563 1244.226563 C 1532.070313 1241.21875 1544.453125 1252.703125 1556.875 1264.226563 C 1569.296875 1275.671875 1581.640625 1287.195313 1590.234375 1284.1875 C 1598.828125 1281.179688 1601.328125 1264.460938 1603.867188 1247.742188 C 1606.445313 1231.023438 1608.945313 1214.304688 1617.5 1211.296875 C 1626.09375 1208.328125 1638.476563 1219.8125 1650.898438 1231.296875 C 1663.320313 1242.78125 1675.703125 1254.265625 1684.257813 1251.296875 C 1692.851563 1248.289063 1695.351563 1231.570313 1697.890625 1214.851563 C 1700.46875 1198.132813 1702.96875 1181.414063 1711.523438 1178.40625 C 1720.117188 1175.398438 1732.5 1186.882813 1744.921875 1198.40625 C 1757.34375 1209.851563 1769.726563 1221.375 1778.28125 1218.367188 C 1786.875 1215.359375 1789.375 1198.640625 1791.953125 1181.921875 C 1794.492188 1165.203125 1796.992188 1148.484375 1805.585938 1145.476563 C 1814.140625 1142.507813 1826.523438 1153.992188 1838.945313 1165.476563 C 1851.367188 1176.960938 1863.75 1188.445313 1872.34375 1185.476563 C 1880.898438 1182.46875 1883.4375 1165.75 1885.976563 1149.03125 C 1888.515625 1132.3125 1891.015625 1115.59375 1899.609375 1112.585938 C 1912.773438 1107.976563 1928.515625 1134.148438 1940.273438 1130.007813 L 1940.390625 1129.96875 L 1996.953125 1110.164063" transform="matrix(.1 0 0 -.1 0 186.95)" fill="none" stroke-width="7.97" stroke-linecap="round" stroke-linejoin="round" stroke="#e14b3b" stroke-miterlimit="10" />
  <path d="M 203.351563 77.214844 L 198.859375 73.445313 L 199.882813 76 L 197.492188 77.355469" fill="#e14b3b" />
  <path d="M 2033.515625 1097.351563 L 1988.59375 1135.046875 L 1998.828125 1109.5 L 1974.921875 1095.945313 Z M 2033.515625 1097.351563" transform="matrix(.1 0 0 -.1 0 186.95)" fill="none" stroke-width="7.995" stroke-linecap="round" stroke="#e14b3b" stroke-miterlimit="10" />
  <path d="M 1407.773438 1214.851563 L 1426.640625 1208.25 C 1438.398438 1204.148438 1454.140625 1230.28125 1465.898438 1226.140625 C 1474.492188 1223.171875 1476.992188 1206.453125 1479.53125 1189.734375 C 1482.109375 1173.015625 1484.609375 1156.296875 1493.164063 1153.289063 C 1501.757813 1150.28125 1514.140625 1161.804688 1526.5625 1173.289063 C 1538.984375 1184.773438 1551.367188 1196.257813 1559.921875 1193.25 C 1568.515625 1190.242188 1571.015625 1173.523438 1573.554688 1156.804688 C 1576.09375 1140.085938 1578.632813 1123.367188 1587.1875 1120.398438 C 1595.78125 1117.390625 1608.164063 1128.875 1620.585938 1140.359375 C 1633.007813 1151.84375 1645.390625 1163.367188 1653.945313 1160.359375 C 1662.539063 1157.351563 1665.039063 1140.632813 1667.617188 1123.914063 C 1670.15625 1107.195313 1672.65625 1090.476563 1681.210938 1087.46875 C 1689.804688 1084.460938 1702.1875 1095.984375 1714.609375 1107.46875 C 1727.03125 1118.953125 1739.414063 1130.4375 1748.007813 1127.429688 C 1756.5625 1124.421875 1759.0625 1107.703125 1761.640625 1090.984375 C 1764.179688 1074.265625 1766.679688 1057.546875 1775.273438 1054.578125 C 1783.828125 1051.570313 1796.210938 1063.054688 1808.632813 1074.539063 C 1821.054688 1086.023438 1833.4375 1097.546875 1842.03125 1094.539063 C 1850.625 1091.53125 1853.125 1074.8125 1855.664063 1058.09375 C 1858.203125 1041.375 1860.703125 1024.65625 1869.296875 1021.648438 C 1882.460938 1017.039063 1898.203125 1043.210938 1909.960938 1039.070313 L 1910.078125 1039.03125 L 1966.640625 1019.226563" transform="matrix(.1 0 0 -.1 0 186.95)" fill="none" stroke-width="7.97" stroke-linecap="round" stroke-linejoin="round" stroke="#e14b3b" stroke-miterlimit="10" />
  <path d="M 200.320313 86.304688 L 195.828125 82.539063 L 196.851563 85.09375 L 194.460938 86.449219" fill="#e14b3b" />
  <path d="M 2003.203125 1006.453125 L 1958.28125 1044.109375 L 1968.515625 1018.5625 L 1944.609375 1005.007813 Z M 2003.203125 1006.453125" transform="matrix(.1 0 0 -.1 0 186.95)" fill="none" stroke-width="7.995" stroke-linecap="round" stroke="#e14b3b" stroke-miterlimit="10" />
  <path d="M181.445313 93.976563L181.089844 93.976563C180.378906 95.324219 180.21875 95.625 178.503906 95.617188L177.152344 95.617188 177.789063 92.480469 179.015625 92.480469C180.042969 92.480469 180.242188 92.601563 180.0625 93.527344L180.410156 93.527344 180.933594 90.941406 180.578125 90.941406C180.398438 91.84375 180.132813 92.054688 179.105469 92.054688L177.867188 92.054688 178.46875 89.15625 180.019531 89.15625C181.390625 89.15625 181.636719 89.433594 181.582031 90.550781L181.925781 90.550781 182.226563 88.71875 176.515625 88.71875 176.449219 89.054688C177.363281 89.054688 177.476563 89.234375 177.296875 90.082031L176.316406 94.800781C176.160156 95.582031 175.890625 95.714844 175.121094 95.714844L175.054688 96.050781 180.84375 96.050781 181.445313 93.976563M183.570313 94.695313L183.378906 94.695313 182.394531 94.910156 182.394531 95.136719C182.394531 95.136719 182.542969 95.121094 182.644531 95.121094 182.902344 95.121094 182.941406 95.222656 182.941406 95.519531L182.941406 99.378906C182.941406 99.8125 182.863281 99.945313 182.371094 99.945313L182.371094 100.164063 184.34375 100.164063 184.34375 99.9375C183.734375 99.9375 183.589844 99.835938 183.589844 99.332031L183.589844 98.308594 183.617188 98.308594C183.84375 98.464844 184.109375 98.527344 184.40625 98.527344 185.339844 98.527344 186.113281 97.742188 186.113281 96.414063 186.113281 95.394531 185.574219 94.671875 184.804688 94.671875 184.34375 94.671875 183.96875 94.910156 183.59375 95.347656L183.570313 95.347656zM183.589844 95.675781C183.734375 95.480469 184.070313 95.199219 184.484375 95.199219 185.0625 95.199219 185.402344 95.652344 185.402344 96.632813 185.402344 97.71875 184.992188 98.222656 184.445313 98.222656 184.007813 98.222656 183.734375 97.875 183.589844 97.710938L183.589844 95.675781M197.339844 92.402344L197.339844 91.644531 190.691406 91.644531 190.691406 92.402344zM197.339844 94.679688L197.339844 93.929688 190.691406 93.929688 190.691406 94.679688 197.339844 94.679688M207.347656 93.976563L206.992188 93.976563C206.277344 95.324219 206.121094 95.625 204.402344 95.617188L203.054688 95.617188 203.6875 92.480469 204.914063 92.480469C205.941406 92.480469 206.140625 92.601563 205.964844 93.527344L206.308594 93.527344 206.835938 90.941406 206.476563 90.941406C206.296875 91.84375 206.03125 92.054688 205.003906 92.054688L203.765625 92.054688 204.367188 89.15625 205.917969 89.15625C207.292969 89.15625 207.539063 89.433594 207.480469 90.550781L207.828125 90.550781 208.128906 88.71875 202.417969 88.71875 202.351563 89.054688C203.265625 89.054688 203.378906 89.234375 203.195313 90.082031L202.214844 94.800781C202.058594 95.582031 201.792969 95.714844 201.023438 95.714844L200.953125 96.050781 206.746094 96.050781 207.347656 93.976563M211.265625 97.390625C210.929688 97.789063 210.570313 97.945313 210.054688 97.945313 209.511719 97.945313 209.144531 97.679688 209.144531 96.914063L209.144531 96.773438C210.15625 96.6875 211.679688 96.273438 211.679688 95.136719 211.679688 94.554688 211.085938 94.421875 210.710938 94.421875 209.324219 94.421875 208.398438 95.800781 208.398438 97.117188 208.398438 97.84375 208.761719 98.558594 209.605469 98.558594 210.234375 98.558594 210.867188 98.347656 211.429688 97.546875zM209.175781 96.492188C209.308594 95.652344 209.890625 94.710938 210.539063 94.710938 210.796875 94.710938 210.90625 94.863281 210.90625 95.167969 210.90625 95.957031 210.140625 96.4375 209.175781 96.492188M215.59375 93.539063L222.242188 93.539063 222.242188 92.78125 215.59375 92.78125zM231.648438 93.976563L231.289063 93.976563C230.578125 95.324219 230.421875 95.625 228.703125 95.617188L227.351563 95.617188 227.988281 92.480469 229.214844 92.480469C230.242188 92.480469 230.441406 92.601563 230.265625 93.527344L230.609375 93.527344 231.132813 90.941406 230.777344 90.941406C230.597656 91.84375 230.332031 92.054688 229.304688 92.054688L228.066406 92.054688 228.667969 89.15625 230.21875 89.15625C231.59375 89.15625 231.839844 89.433594 231.78125 90.550781L232.128906 90.550781 232.429688 88.71875 226.71875 88.71875 226.648438 89.054688C227.5625 89.054688 227.675781 89.234375 227.496094 90.082031L226.515625 94.800781C226.359375 95.582031 226.09375 95.714844 225.320313 95.714844L225.253906 96.050781 231.046875 96.050781 231.648438 93.976563M236.859375 94.664063L235.757813 94.664063C235.570313 94.53125 235.238281 94.421875 234.832031 94.421875 233.859375 94.421875 233.171875 95.003906 233.171875 95.832031 233.171875 96.5 233.5625 96.78125 233.992188 96.960938L233.992188 97.023438C233.65625 97.140625 233.273438 97.273438 233.273438 97.710938 233.273438 97.9375 233.421875 98.070313 233.53125 98.152344L233.53125 98.199219C233.015625 98.347656 232.515625 98.660156 232.515625 99.183594 232.515625 99.828125 233.007813 100.179688 234.316406 100.179688 235.617188 100.179688 236.351563 99.585938 236.351563 98.871094 236.351563 97.664063 234.03125 97.921875 234.03125 97.484375 234.03125 97.273438 234.261719 97.085938 234.644531 97.070313 235.757813 97.03125 236.265625 96.4375 236.265625 95.730469 236.265625 95.472656 236.1875 95.324219 236.085938 95.152344L236.085938 95.128906 236.8125 95.128906zM235.46875 95.605469C235.46875 96.257813 235.207031 96.765625 234.613281 96.765625 234.136719 96.765625 233.976563 96.390625 233.976563 95.761719 233.976563 95.121094 234.316406 94.710938 234.816406 94.710938 235.261719 94.710938 235.46875 95.113281 235.46875 95.605469zM235.59375 99.191406C235.59375 99.554688 235.191406 99.84375 234.417969 99.84375 233.632813 99.84375 233.296875 99.515625 233.296875 99.097656 233.296875 98.667969 233.554688 98.503906 233.820313 98.339844 234.417969 98.457031 235.59375 98.558594 235.59375 99.191406" fill="#e14b3b" />
</svg>