<?xml version="1.0" encoding="utf-8" standalone="no"?>
<!DOCTYPE svg PUBLIC "-//W3C//DTD SVG 1.1//EN"
  "http://www.w3.org/Graphics/SVG/1.1/DTD/svg11.dtd">
<svg xmlns:xlink="http://www.w3.org/1999/xlink" width="460.8pt" height="254.781345pt" viewBox="0 0 460.8 254.781345" xmlns="http://www.w3.org/2000/svg" version="1.1">
 <metadata>
  <rdf:RDF xmlns:dc="http://purl.org/dc/elements/1.1/" xmlns:cc="http://creativecommons.org/ns#" xmlns:rdf="http://www.w3.org/1999/02/22-rdf-syntax-ns#">
   <cc:Work>
    <dc:type rdf:resource="http://purl.org/dc/dcmitype/StillImage"/>
    <dc:date>2026-01-09T12:35:49.768822</dc:date>
    <dc:format>image/svg+xml</dc:format>
    <dc:creator>
     <cc:Agent>
      <dc:title>Matplotlib v3.10.1, https://matplotlib.org/</dc:title>
     </cc:Agent>
    </dc:creator>
   </cc:Work>
  </rdf:RDF>
 </metadata>
 <defs>
  <style type="text/css">*{stroke-linejoin: round; stroke-linecap: butt}</style>
 </defs>
 <g id="figure_1">
  <g id="patch_1">
   <path d="M 0 254.781345 
L 460.8 254.781345 
L 460.8 0 
L 0 0 
z
" style="fill: #ffffff"/>
  </g>
  <g id="axes_1">
   <g id="patch_2">
    <path d="M 50.036364 118.639383 
L 41.018182 126.1995 
L 41.018182 118.891387 
L 27.490909 118.891387 
L 27.490909 118.387379 
L 41.018182 118.387379 
L 41.018182 111.079265 
z
" clip-path="url(#p17eed7d809)" style="fill: #1f77b4; stroke: #000000; stroke-linejoin: miter"/>
   </g>
   <g id="patch_3">
    <path d="M 433.309091 118.639383 
L 424.290909 126.1995 
L 424.290909 118.891387 
L 410.763636 118.891387 
L 410.763636 118.387379 
L 424.290909 118.387379 
L 424.290909 111.079265 
z
" clip-path="url(#p17eed7d809)" style="fill: #1f77b4; stroke: #000000; stroke-linejoin: miter"/>
   </g>
   <g id="line2d_1">
    <path d="M 50.036364 118.639383 
L 410.763636 118.639383 
" clip-path="url(#p17eed7d809)" style="fill: none; stroke: #1f77b4; stroke-width: 2; stroke-linecap: square"/>
   </g>
   <g id="line2d_2">
    <path d="M 185.309091 93.43899 
L 185.208026 91.055542 
L 184.905737 88.693462 
L 184.404935 86.373928 
L 183.710109 84.117736 
L 182.827489 81.945112 
L 181.764988 79.875536 
L 180.532131 77.927563 
L 179.139973 76.118656 
L 177.600993 74.465033 
L 175.928989 72.981521 
L 174.138953 71.681418 
L 172.246932 70.576381 
L 170.269889 69.676318 
L 168.22555 68.989297 
L 166.132241 68.521479 
L 164.008732 68.277056 
L 161.87406 68.258222 
L 159.747364 68.465144 
L 157.64771 68.895967 
L 155.593922 69.546829 
L 153.604414 70.411895 
L 151.697022 71.483409 
L 149.888847 72.751764 
L 148.1961 74.205589 
L 146.633958 75.83185 
L 145.216425 77.615967 
L 143.956211 79.541944 
L 142.864613 81.592513 
L 141.951419 83.749292 
L 141.224815 85.992943 
L 140.691316 88.303351 
L 140.355705 90.659803 
L 140.220991 93.041171 
L 140.218182 93.43899 
L 140.218182 93.43899 
" clip-path="url(#p17eed7d809)" style="fill: none; stroke: #ff7f0e; stroke-width: 1.5; stroke-linecap: square"/>
   </g>
   <g id="line2d_3">
    <path d="M 185.309091 143.839775 
L 185.208026 146.223223 
L 184.905737 148.585303 
L 184.404935 150.904837 
L 183.710109 153.16103 
L 182.827489 155.333653 
L 181.764988 157.403229 
L 180.532131 159.351202 
L 179.139973 161.160109 
L 177.600993 162.813732 
L 175.928989 164.297245 
L 174.138953 165.597347 
L 172.246932 166.702384 
L 170.269889 167.602447 
L 168.22555 168.289468 
L 166.132241 168.757287 
L 164.008732 169.001709 
L 161.87406 169.020543 
L 159.747364 168.813621 
L 157.64771 168.382798 
L 155.593922 167.731936 
L 153.604414 166.86687 
L 151.697022 165.795356 
L 149.888847 164.527001 
L 148.1961 163.073176 
L 146.633958 161.446915 
L 145.216425 159.662799 
L 143.956211 157.736822 
L 142.864613 155.686252 
L 141.951419 153.529473 
L 141.224815 151.285822 
L 140.691316 148.975414 
L 140.355705 146.618963 
L 140.220991 144.237595 
L 140.218182 143.839775 
L 140.218182 143.839775 
" clip-path="url(#p17eed7d809)" style="fill: none; stroke: #2ca02c; stroke-width: 1.5; stroke-linecap: square"/>
   </g>
   <g id="line2d_4">
    <path d="M 320.581818 93.43899 
L 320.480753 91.055542 
L 320.178465 88.693462 
L 319.677662 86.373928 
L 318.982837 84.117736 
L 318.100217 81.945112 
L 317.037715 79.875536 
L 315.804859 77.927563 
L 314.4127 76.118656 
L 312.87372 74.465033 
L 311.201717 72.981521 
L 309.41168 71.681418 
L 307.519659 70.576381 
L 305.542617 69.676318 
L 303.498277 68.989297 
L 301.404969 68.521479 
L 299.28146 68.277056 
L 297.146788 68.258222 
L 295.020091 68.465144 
L 292.920437 68.895967 
L 290.866649 69.546829 
L 288.877141 70.411895 
L 286.969749 71.483409 
L 285.161574 72.751764 
L 283.468828 74.205589 
L 281.906685 75.83185 
L 280.489152 77.615967 
L 279.228938 79.541944 
L 278.13734 81.592513 
L 277.224146 83.749292 
L 276.497542 85.992943 
L 275.964043 88.303351 
L 275.628433 90.659803 
L 275.493718 93.041171 
L 275.490909 93.43899 
L 275.490909 93.43899 
" clip-path="url(#p17eed7d809)" style="fill: none; stroke: #d62728; stroke-width: 1.5; stroke-linecap: square"/>
   </g>
   <g id="line2d_5">
    <path d="M 320.581818 143.839775 
L 320.480753 146.223223 
L 320.178465 148.585303 
L 319.677662 150.904837 
L 318.982837 153.16103 
L 318.100217 155.333653 
L 317.037715 157.403229 
L 315.804859 159.351202 
L 314.4127 161.160109 
L 312.87372 162.813732 
L 311.201717 164.297245 
L 309.41168 165.597347 
L 307.519659 166.702384 
L 305.542617 167.602447 
L 303.498277 168.289468 
L 301.404969 168.757287 
L 299.28146 169.001709 
L 297.146788 169.020543 
L 295.020091 168.813621 
L 292.920437 168.382798 
L 290.866649 167.731936 
L 288.877141 166.86687 
L 286.969749 165.795356 
L 285.161574 164.527001 
L 283.468828 163.073176 
L 281.906685 161.446915 
L 280.489152 159.662799 
L 279.228938 157.736822 
L 278.13734 155.686252 
L 277.224146 153.529473 
L 276.497542 151.285822 
L 275.964043 148.975414 
L 275.628433 146.618963 
L 275.493718 144.237595 
L 275.490909 143.839775 
L 275.490909 143.839775 
" clip-path="url(#p17eed7d809)" style="fill: none; stroke: #9467bd; stroke-width: 1.5; stroke-linecap: square"/>
   </g>
   <g id="text_1">
    <!-- $Q_A$ -->
    <g transform="translate(18.472727 58.158441) scale(0.14 -0.14)">
     <defs>
      <path id="DejaVuSans-Oblique-51" d="M 2309 -84 
Q 2275 -88 2237 -89 
Q 2200 -91 2125 -91 
Q 1250 -91 756 411 
Q 263 913 263 1797 
Q 263 2319 452 2844 
Q 641 3369 978 3788 
Q 1369 4269 1858 4509 
Q 2347 4750 2938 4750 
Q 3794 4750 4287 4245 
Q 4781 3741 4781 2869 
Q 4781 1928 4265 1147 
Q 3750 366 2919 44 
L 3553 -825 
L 2847 -825 
L 2309 -84 
z
M 2919 4238 
Q 2400 4238 2003 3986 
Q 1606 3734 1313 3219 
Q 1125 2891 1026 2522 
Q 928 2153 928 1778 
Q 928 1128 1239 775 
Q 1550 422 2119 422 
Q 2631 422 3032 676 
Q 3434 931 3719 1434 
Q 3909 1772 4009 2142 
Q 4109 2513 4109 2881 
Q 4109 3528 3796 3883 
Q 3484 4238 2919 4238 
z
" transform="scale(0.015625)"/>
      <path id="DejaVuSans-Oblique-41" d="M 2356 4666 
L 3072 4666 
L 3938 0 
L 3278 0 
L 3084 1197 
L 984 1197 
L 325 0 
L -341 0 
L 2356 4666 
z
M 2584 4044 
L 1275 1722 
L 2988 1722 
L 2584 4044 
z
" transform="scale(0.015625)"/>
     </defs>
     <use xlink:href="#DejaVuSans-Oblique-51" transform="translate(0 0.78125)"/>
     <use xlink:href="#DejaVuSans-Oblique-41" transform="translate(78.710938 -15.625) scale(0.7)"/>
    </g>
   </g>
   <g id="text_2">
    <!-- $Q_A$ -->
    <g transform="translate(419.781818 58.158441) scale(0.14 -0.14)">
     <use xlink:href="#DejaVuSans-Oblique-51" transform="translate(0 0.78125)"/>
     <use xlink:href="#DejaVuSans-Oblique-41" transform="translate(78.710938 -15.625) scale(0.7)"/>
    </g>
   </g>
   <g id="text_3">
    <!-- $p_1$ -->
    <g transform="translate(13.963636 209.360796) scale(0.14 -0.14)">
     <defs>
      <path id="DejaVuSans-Oblique-70" d="M 3175 2156 
Q 3175 2616 2975 2859 
Q 2775 3103 2400 3103 
Q 2144 3103 1911 2972 
Q 1678 2841 1497 2591 
Q 1319 2344 1212 1994 
Q 1106 1644 1106 1300 
Q 1106 863 1306 627 
Q 1506 391 1875 391 
Q 2147 391 2380 519 
Q 2613 647 2778 891 
Q 2956 1147 3065 1494 
Q 3175 1841 3175 2156 
z
M 1394 2969 
Q 1625 3272 1939 3428 
Q 2253 3584 2638 3584 
Q 3175 3584 3472 3232 
Q 3769 2881 3769 2247 
Q 3769 1728 3584 1258 
Q 3400 788 3053 416 
Q 2822 169 2531 39 
Q 2241 -91 1919 -91 
Q 1547 -91 1294 64 
Q 1041 219 916 525 
L 556 -1331 
L -19 -1331 
L 922 3500 
L 1497 3500 
L 1394 2969 
z
" transform="scale(0.015625)"/>
      <path id="DejaVuSans-31" d="M 794 531 
L 1825 531 
L 1825 4091 
L 703 3866 
L 703 4441 
L 1819 4666 
L 2450 4666 
L 2450 531 
L 3481 531 
L 3481 0 
L 794 0 
L 794 531 
z
" transform="scale(0.015625)"/>
     </defs>
     <use xlink:href="#DejaVuSans-Oblique-70"/>
     <use xlink:href="#DejaVuSans-31" transform="translate(63.476562 -16.40625) scale(0.7)"/>
    </g>
   </g>
   <g id="text_4">
    <!-- $p_2$ -->
    <g transform="translate(419.781818 209.360796) scale(0.14 -0.14)">
     <defs>
      <path id="DejaVuSans-32" d="M 1228 531 
L 3431 531 
L 3431 0 
L 469 0 
L 469 531 
Q 828 903 1448 1529 
Q 2069 2156 2228 2338 
Q 2531 2678 2651 2914 
Q 2772 3150 2772 3378 
Q 2772 3750 2511 3984 
Q 2250 4219 1831 4219 
Q 1534 4219 1204 4116 
Q 875 4013 500 3803 
L 500 4441 
Q 881 4594 1212 4672 
Q 1544 4750 1819 4750 
Q 2544 4750 2975 4387 
Q 3406 4025 3406 3419 
Q 3406 3131 3298 2873 
Q 3191 2616 2906 2266 
Q 2828 2175 2409 1742 
Q 1991 1309 1228 531 
z
" transform="scale(0.015625)"/>
     </defs>
     <use xlink:href="#DejaVuSans-Oblique-70"/>
     <use xlink:href="#DejaVuSans-32" transform="translate(63.476562 -16.40625) scale(0.7)"/>
    </g>
   </g>
   <g id="text_5">
    <!-- $R_1$ -->
    <g transform="translate(153.745455 17.837812) scale(0.14 -0.14)">
     <defs>
      <path id="DejaVuSans-Oblique-52" d="M 1613 4147 
L 1294 2491 
L 2106 2491 
Q 2584 2491 2879 2755 
Q 3175 3019 3175 3444 
Q 3175 3784 2976 3965 
Q 2778 4147 2406 4147 
L 1613 4147 
z
M 2772 2241 
Q 2972 2194 3105 2009 
Q 3238 1825 3413 1275 
L 3809 0 
L 3144 0 
L 2778 1197 
Q 2638 1659 2453 1815 
Q 2269 1972 1888 1972 
L 1191 1972 
L 806 0 
L 172 0 
L 1081 4666 
L 2503 4666 
Q 3150 4666 3495 4373 
Q 3841 4081 3841 3531 
Q 3841 3044 3547 2687 
Q 3253 2331 2772 2241 
z
" transform="scale(0.015625)"/>
     </defs>
     <use xlink:href="#DejaVuSans-Oblique-52" transform="translate(0 0.09375)"/>
     <use xlink:href="#DejaVuSans-31" transform="translate(69.482422 -16.3125) scale(0.7)"/>
    </g>
   </g>
   <g id="text_6">
    <!-- $R_2$ -->
    <g transform="translate(289.018182 17.837812) scale(0.14 -0.14)">
     <use xlink:href="#DejaVuSans-Oblique-52" transform="translate(0 0.09375)"/>
     <use xlink:href="#DejaVuSans-32" transform="translate(69.482422 -16.3125) scale(0.7)"/>
    </g>
   </g>
   <g id="text_7">
    <!-- $\Delta p_1$ -->
    <g transform="translate(149.236364 244.641345) scale(0.14 -0.14)">
     <defs>
      <path id="DejaVuSans-394" d="M 2188 4044 
L 906 525 
L 3472 525 
L 2188 4044 
z
M 50 0 
L 1831 4666 
L 2547 4666 
L 4325 0 
L 50 0 
z
" transform="scale(0.015625)"/>
     </defs>
     <use xlink:href="#DejaVuSans-394" transform="translate(0 0.09375)"/>
     <use xlink:href="#DejaVuSans-Oblique-70" transform="translate(68.408203 0.09375)"/>
     <use xlink:href="#DejaVuSans-31" transform="translate(131.884766 -16.3125) scale(0.7)"/>
    </g>
   </g>
   <g id="text_8">
    <!-- $\Delta p_2$ -->
    <g transform="translate(284.509091 244.641345) scale(0.14 -0.14)">
     <use xlink:href="#DejaVuSans-394" transform="translate(0 0.09375)"/>
     <use xlink:href="#DejaVuSans-Oblique-70" transform="translate(68.408203 0.09375)"/>
     <use xlink:href="#DejaVuSans-32" transform="translate(131.884766 -16.3125) scale(0.7)"/>
    </g>
   </g>
  </g>
 </g>
 <defs>
  <clipPath id="p17eed7d809">
   <rect x="7.2" y="63.199383" width="446.4" height="110.88"/>
  </clipPath>
 </defs>
</svg>
